<?xml version="1.0" encoding="UTF-8" standalone="no"?>
<!DOCTYPE svg PUBLIC "-//W3C//DTD SVG 1.1//EN"
 "http://www.w3.org/Graphics/SVG/1.1/DTD/svg11.dtd">
<!-- Generated by graphviz version 12.2.0 (20241103.1931)
 -->
<!-- Title: geodetic_from_scaled Pages: 1 -->
<svg width="764pt" height="65pt"
 viewBox="0.00 0.00 764.00 65.25" xmlns="http://www.w3.org/2000/svg" xmlns:xlink="http://www.w3.org/1999/xlink">
<g id="graph0" class="graph" transform="scale(1 1) rotate(0) translate(4 61.25)">
<title>geodetic_from_scaled</title>
<!-- Node1 -->
<g id="Node000001" class="node">
<title>Node1</title>
<g id="a_Node000001"><a xlink:title="Build a coordinate from latitude and longitude already in degrees.">
<polygon fill="#999999" stroke="#666666" points="756,-38.25 644.75,-38.25 644.75,-19 756,-19 756,-38.25"/>
<text text-anchor="middle" x="700.38" y="-24.75" font-family="Helvetica,sans-Serif" font-size="10.00">geodetic_from_scaled</text>
</a>
</g>
</g>
<!-- Node2 -->
<g id="Node000002" class="node">
<title>Node2</title>
<g id="a_Node000002"><a xlink:href="lap__timer_8c.html#a922bb1fc5c4fe5ec8f82bc735890ee69" target="_top" xlink:title=" ">
<polygon fill="white" stroke="#666666" points="608.75,-19.25 493,-19.25 493,0 608.75,0 608.75,-19.25"/>
<text text-anchor="middle" x="550.88" y="-5.75" font-family="Helvetica,sans-Serif" font-size="10.00">lap_timer_gps_to_local</text>
</a>
</g>
</g>
<!-- Node1&#45;&gt;Node2 -->
<g id="edge1_Node000001_Node000002" class="edge">
<title>Node1&#45;&gt;Node2</title>
<g id="a_edge1_Node000001_Node000002"><a xlink:title=" ">
<path fill="none" stroke="#63b8ff" d="M633.11,-20.09C625,-19.04 616.77,-17.98 608.82,-16.96"/>
<polygon fill="#63b8ff" stroke="#63b8ff" points="632.59,-23.55 642.95,-21.36 633.48,-16.61 632.59,-23.55"/>
</a>
</g>
</g>
<!-- Node3 -->
<g id="Node000003" class="node">
<title>Node3</title>
<g id="a_Node000003"><a xlink:href="lap__timer_8c.html#a7220f3edbfb4c8e5b3956ab663092676" target="_top" xlink:title=" ">
<polygon fill="white" stroke="#666666" points="457,-57.25 361.5,-57.25 361.5,-38 457,-38 457,-57.25"/>
<text text-anchor="middle" x="409.25" y="-43.75" font-family="Helvetica,sans-Serif" font-size="10.00">lap_timer_onpress</text>
</a>
</g>
</g>
<!-- Node1&#45;&gt;Node3 -->
<g id="edge8_Node000001_Node000003" class="edge">
<title>Node1&#45;&gt;Node3</title>
<g id="a_edge8_Node000001_Node000003"><a xlink:title=" ">
<path fill="none" stroke="#63b8ff" d="M632.86,-33C579.23,-36.52 505.14,-41.39 457.45,-44.52"/>
<polygon fill="#63b8ff" stroke="#63b8ff" points="633.05,-36.49 642.8,-32.34 632.59,-29.51 633.05,-36.49"/>
</a>
</g>
</g>
<!-- Node2&#45;&gt;Node3 -->
<g id="edge2_Node000002_Node000003" class="edge">
<title>Node2&#45;&gt;Node3</title>
<g id="a_edge2_Node000002_Node000003"><a xlink:title=" ">
<path fill="none" stroke="#63b8ff" d="M501.95,-22.67C483.96,-27.56 463.81,-33.05 446.99,-37.63"/>
<polygon fill="#63b8ff" stroke="#63b8ff" points="502.63,-26.11 511.36,-20.11 500.8,-19.35 502.63,-26.11"/>
</a>
</g>
</g>
<!-- Node7 -->
<g id="Node000007" class="node">
<title>Node7</title>
<g id="a_Node000007"><a xlink:href="lap__timer_8c.html#a382636387f4db3d2b08c71b5e7c03f2b" target="_top" xlink:title=" ">
<polygon fill="white" stroke="#666666" points="325.5,-19.25 230.75,-19.25 230.75,0 325.5,0 325.5,-19.25"/>
<text text-anchor="middle" x="278.12" y="-5.75" font-family="Helvetica,sans-Serif" font-size="10.00">lap_timer_periodic</text>
</a>
</g>
</g>
<!-- Node2&#45;&gt;Node7 -->
<g id="edge6_Node000002_Node000007" class="edge">
<title>Node2&#45;&gt;Node7</title>
<g id="a_edge6_Node000002_Node000007"><a xlink:title=" ">
<path fill="none" stroke="#63b8ff" d="M481.4,-9.62C432.73,-9.62 368.65,-9.62 325.78,-9.62"/>
<polygon fill="#63b8ff" stroke="#63b8ff" points="481.27,-13.13 491.27,-9.63 481.27,-6.13 481.27,-13.13"/>
</a>
</g>
</g>
<!-- Node4 -->
<g id="Node000004" class="node">
<title>Node4</title>
<g id="a_Node000004"><a xlink:href="driver__interface_8c.html#a6ec7bb211c49e211d008f7c9bcdb2b8d" target="_top" xlink:title=" ">
<polygon fill="white" stroke="#666666" points="324.38,-57.25 231.88,-57.25 231.88,-38 324.38,-38 324.38,-57.25"/>
<text text-anchor="middle" x="278.12" y="-43.75" font-family="Helvetica,sans-Serif" font-size="10.00">action_dispatcher</text>
</a>
</g>
</g>
<!-- Node3&#45;&gt;Node4 -->
<g id="edge3_Node000003_Node000004" class="edge">
<title>Node3&#45;&gt;Node4</title>
<g id="a_edge3_Node000003_Node000004"><a xlink:title=" ">
<path fill="none" stroke="#63b8ff" d="M349.85,-47.62C341.36,-47.62 332.74,-47.62 324.56,-47.62"/>
<polygon fill="#63b8ff" stroke="#63b8ff" points="349.75,-51.13 359.75,-47.63 349.75,-44.13 349.75,-51.13"/>
</a>
</g>
</g>
<!-- Node5 -->
<g id="Node000005" class="node">
<title>Node5</title>
<g id="a_Node000005"><a xlink:href="driver__interface_8c.html#ac599c66976c348cb0287266b60aa49c5" target="_top" xlink:title=" ">
<polygon fill="white" stroke="#666666" points="194.75,-57.25 73,-57.25 73,-38 194.75,-38 194.75,-57.25"/>
<text text-anchor="middle" x="133.88" y="-43.75" font-family="Helvetica,sans-Serif" font-size="10.00">driver_interface_periodic</text>
</a>
</g>
</g>
<!-- Node4&#45;&gt;Node5 -->
<g id="edge4_Node000004_Node000005" class="edge">
<title>Node4&#45;&gt;Node5</title>
<g id="a_edge4_Node000004_Node000005"><a xlink:title=" ">
<path fill="none" stroke="#63b8ff" d="M220.28,-47.62C212.02,-47.62 203.49,-47.62 195.16,-47.62"/>
<polygon fill="#63b8ff" stroke="#63b8ff" points="220.21,-51.13 230.21,-47.63 220.21,-44.13 220.21,-51.13"/>
</a>
</g>
</g>
<!-- Node6 -->
<g id="Node000006" class="node">
<title>Node6</title>
<g id="a_Node000006"><a xlink:href="dashboard_2main_8c.html#a840291bc02cba5474a4cb46a9b9566fe" target="_top" xlink:title=" ">
<polygon fill="white" stroke="#666666" points="37,-38.25 0,-38.25 0,-19 37,-19 37,-38.25"/>
<text text-anchor="middle" x="18.5" y="-24.75" font-family="Helvetica,sans-Serif" font-size="10.00">main</text>
</a>
</g>
</g>
<!-- Node5&#45;&gt;Node6 -->
<g id="edge5_Node000005_Node000006" class="edge">
<title>Node5&#45;&gt;Node6</title>
<g id="a_edge5_Node000005_Node000006"><a xlink:title=" ">
<path fill="none" stroke="#63b8ff" d="M61.18,-35.61C52.38,-34.14 44.1,-32.75 37.28,-31.6"/>
<polygon fill="#63b8ff" stroke="#63b8ff" points="60.6,-39.06 71.04,-37.26 61.76,-32.16 60.6,-39.06"/>
</a>
</g>
</g>
<!-- Node7&#45;&gt;Node6 -->
<g id="edge7_Node000007_Node000006" class="edge">
<title>Node7&#45;&gt;Node6</title>
<g id="a_edge7_Node000007_Node000006"><a xlink:title=" ">
<path fill="none" stroke="#63b8ff" d="M219.2,-13.9C160.86,-18.2 74.34,-24.58 37.34,-27.31"/>
<polygon fill="#63b8ff" stroke="#63b8ff" points="219.25,-17.4 228.96,-13.18 218.73,-10.42 219.25,-17.4"/>
</a>
</g>
</g>
</g>
</svg>
