<?xml version="1.0" encoding="UTF-8" standalone="no"?>
<!DOCTYPE svg PUBLIC "-//W3C//DTD SVG 1.1//EN"
 "http://www.w3.org/Graphics/SVG/1.1/DTD/svg11.dtd">
<!-- Generated by graphviz version 12.2.0 (20241103.1931)
 -->
<!-- Title: lap_timer_l2_crossed Pages: 1 -->
<!--zoomable 291 -->

<svg id="main" version="1.1" xmlns="http://www.w3.org/2000/svg" xmlns:xlink="http://www.w3.org/1999/xlink" xml:space="preserve" onload="init(evt)">

<style type="text/css"><![CDATA[
.node, .edge {opacity: 0.7;}
.node.selected, .edge.selected {opacity: 1;}
.edge:hover path { stroke: red; }
.edge:hover polygon { stroke: red; fill: red; }
]]></style>

<defs>
  <circle id="rim" cx="0" cy="0" r="7"/>
  <circle id="rim2" cx="0" cy="0" r="3.5"/>
  <g id="zoomPlus">
    <use xlink:href="#rim" fill="#404040"><set attributeName="fill" to="#808080" begin="zoomplus.mouseover" end="zoomplus.mouseout"/></use>
    <path d="M-4,0h8M0,-4v8" fill="none" stroke="white" stroke-width="1.5" pointer-events="none"/>
  </g>
  <g id="zoomMin">
    <use xlink:href="#rim" fill="#404040"><set attributeName="fill" to="#808080" begin="zoomminus.mouseover" end="zoomminus.mouseout"/></use>
    <path d="M-4,0h8" fill="none" stroke="white" stroke-width="1.5" pointer-events="none"/>
  </g>
  <g id="arrowUp" transform="translate(30 24)">
    <use xlink:href="#rim"/>
    <path pointer-events="none" fill="none" stroke="white" stroke-width="1.5" d="M0,-3.0v7 M-2.5,-0.5L0,-3.0L2.5,-0.5"/>
  </g>
  <g id="arrowRight" transform="rotate(90) translate(36 -43)">
    <use xlink:href="#rim"/>
    <path pointer-events="none" fill="none" stroke="white" stroke-width="1.5" d="M0,-3.0v7 M-2.5,-0.5L0,-3.0L2.5,-0.5"/>
  </g>
  <g id="arrowDown" transform="rotate(180) translate(-30 -48)">
    <use xlink:href="#rim"/>
    <path pointer-events="none" fill="none" stroke="white" stroke-width="1.5" d="M0,-3.0v7 M-2.5,-0.5L0,-3.0L2.5,-0.5"/>
  </g>
  <g id="arrowLeft" transform="rotate(270) translate(-36 17)">
    <use xlink:href="#rim"/>
    <path pointer-events="none" fill="none" stroke="white" stroke-width="1.5" d="M0,-3.0v7 M-2.5,-0.5L0,-3.0L2.5,-0.5"/>
  </g>
  <g id="resetDef">
    <use xlink:href="#rim2" fill="#404040"><set attributeName="fill" to="#808080" begin="reset.mouseover" end="reset.mouseout"/></use>
  </g>
</defs>
<script type="application/ecmascript">
var viewWidth = 582;
var viewHeight = 291;
var sectionId = 'dynsection-4';
</script>
<script type="application/ecmascript" xlink:href="svg.min.js"/>
<svg id="graph" class="graph">
<g id="viewport">
<title>lap_timer_l2_crossed</title>
<!-- Node1 -->
<g id="Node000001" class="node">
<title>Node1</title>
<g id="a_Node000001"><a xlink:title=" ">
<polygon fill="#999999" stroke="#666666" points="108.25,-189.25 0,-189.25 0,-170 108.25,-170 108.25,-189.25"/>
<text text-anchor="middle" x="54.12" y="-175.75" font-family="Helvetica,sans-Serif" font-size="10.00">lap_timer_l2_crossed</text>
</a>
</g>
</g>
<!-- Node2 -->
<g id="Node000002" class="node">
<title>Node2</title>
<g id="a_Node000002"><a xlink:href="geometry_8h.html#ab7709673624c807ab7925b7c87f0e00e" target="_top" xlink:title="Test whether two segments intersect, including collinear overlap.">
<polygon fill="white" stroke="#666666" points="258.5,-246.25 151.75,-246.25 151.75,-227 258.5,-227 258.5,-246.25"/>
<text text-anchor="middle" x="205.12" y="-232.75" font-family="Helvetica,sans-Serif" font-size="10.00">segment2_intersects</text>
</a>
</g>
</g>
<!-- Node1&#45;&gt;Node2 -->
<g id="edge1_Node000001_Node000002" class="edge">
<title>Node1&#45;&gt;Node2</title>
<g id="a_edge1_Node000001_Node000002"><a xlink:title=" ">
<path fill="none" stroke="#63b8ff" d="M81.42,-189.68C105.28,-198.81 140.71,-212.37 167.37,-222.57"/>
<polygon fill="#63b8ff" stroke="#63b8ff" points="165.84,-225.73 176.43,-226.03 168.34,-219.19 165.84,-225.73"/>
</a>
</g>
</g>
<!-- Node7 -->
<g id="Node000007" class="node">
<title>Node7</title>
<g id="a_Node000007"><a xlink:href="geometry_8h.html#ae32f7f124472f409f1355551b885bba0" target="_top" xlink:title="Build the segment perpendicular to a segment through its midpoint.">
<polygon fill="white" stroke="#666666" points="266,-137.88 144.25,-137.88 144.25,-107.38 266,-107.38 266,-137.88"/>
<text text-anchor="start" x="152.25" y="-124.38" font-family="Helvetica,sans-Serif" font-size="10.00">segment2_perpendicular</text>
<text text-anchor="middle" x="205.12" y="-113.12" font-family="Helvetica,sans-Serif" font-size="10.00">_bisector</text>
</a>
</g>
</g>
<!-- Node1&#45;&gt;Node7 -->
<g id="edge6_Node000001_Node000007" class="edge">
<title>Node1&#45;&gt;Node7</title>
<g id="a_edge6_Node000001_Node000007"><a xlink:title=" ">
<path fill="none" stroke="#63b8ff" d="M81.42,-169.57C101.05,-162.05 128.52,-151.55 152.48,-142.38"/>
<polygon fill="#63b8ff" stroke="#63b8ff" points="153.7,-145.66 161.79,-138.82 151.2,-139.12 153.7,-145.66"/>
</a>
</g>
</g>
<!-- Node3 -->
<g id="Node000003" class="node">
<title>Node3</title>
<g id="a_Node000003"><a xlink:href="geometry_8h.html#a9cba600d217e50fd65869f151466a83e" target="_top" xlink:title="Test whether a point falls inside a segment&#39;s bounding box.">
<polygon fill="white" stroke="#666666" points="439.5,-283.25 302,-283.25 302,-264 439.5,-264 439.5,-283.25"/>
<text text-anchor="middle" x="370.75" y="-269.75" font-family="Helvetica,sans-Serif" font-size="10.00">segment2_contains_bounds</text>
</a>
</g>
</g>
<!-- Node2&#45;&gt;Node3 -->
<g id="edge2_Node000002_Node000003" class="edge">
<title>Node2&#45;&gt;Node3</title>
<g id="a_edge2_Node000002_Node000003"><a xlink:title=" ">
<path fill="none" stroke="#63b8ff" d="M250.84,-246.74C270.32,-251.14 293.36,-256.35 313.95,-261.01"/>
<polygon fill="#63b8ff" stroke="#63b8ff" points="313.09,-264.4 323.62,-263.19 314.63,-257.57 313.09,-264.4"/>
</a>
</g>
</g>
<!-- Node4 -->
<g id="Node000004" class="node">
<title>Node4</title>
<g id="a_Node000004"><a xlink:href="geometry_8h.html#a6e735b8719acb9be09a8055f5a1cdff5" target="_top" xlink:title="Determine which way the path a &#45;&gt; b &#45;&gt; c turns.">
<polygon fill="white" stroke="#666666" points="414,-246.25 327.5,-246.25 327.5,-227 414,-227 414,-246.25"/>
<text text-anchor="middle" x="370.75" y="-232.75" font-family="Helvetica,sans-Serif" font-size="10.00">vector2_winding</text>
</a>
</g>
</g>
<!-- Node2&#45;&gt;Node4 -->
<g id="edge3_Node000002_Node000004" class="edge">
<title>Node2&#45;&gt;Node4</title>
<g id="a_edge3_Node000002_Node000004"><a xlink:title=" ">
<path fill="none" stroke="#63b8ff" d="M258.8,-236.62C276.97,-236.62 297.35,-236.62 315.63,-236.62"/>
<polygon fill="#63b8ff" stroke="#63b8ff" points="315.49,-240.13 325.49,-236.63 315.49,-233.13 315.49,-240.13"/>
</a>
</g>
</g>
<!-- Node5 -->
<g id="Node000005" class="node">
<title>Node5</title>
<g id="a_Node000005"><a xlink:href="linear__algebra_8h.html#a24e6804e26c8b9048d77319bb3d0dcb9" target="_top" xlink:title="Cross product of two 2D vectors.">
<polygon fill="white" stroke="#666666" points="563.5,-246.25 486,-246.25 486,-227 563.5,-227 563.5,-246.25"/>
<text text-anchor="middle" x="524.75" y="-232.75" font-family="Helvetica,sans-Serif" font-size="10.00">vector2_cross</text>
</a>
</g>
</g>
<!-- Node4&#45;&gt;Node5 -->
<g id="edge4_Node000004_Node000005" class="edge">
<title>Node4&#45;&gt;Node5</title>
<g id="a_edge4_Node000004_Node000005"><a xlink:title=" ">
<path fill="none" stroke="#63b8ff" d="M414.49,-236.62C433.13,-236.62 455.08,-236.62 474.4,-236.62"/>
<polygon fill="#63b8ff" stroke="#63b8ff" points="474.21,-240.13 484.21,-236.63 474.21,-233.13 474.21,-240.13"/>
</a>
</g>
</g>
<!-- Node6 -->
<g id="Node000006" class="node">
<title>Node6</title>
<g id="a_Node000006"><a xlink:href="linear__algebra_8h.html#a1ebccdd0fce0cdfa7a931095189887b4" target="_top" xlink:title="Subtract one 2D vector from another.">
<polygon fill="white" stroke="#666666" points="559.38,-208.25 490.12,-208.25 490.12,-189 559.38,-189 559.38,-208.25"/>
<text text-anchor="middle" x="524.75" y="-194.75" font-family="Helvetica,sans-Serif" font-size="10.00">vector2_sub</text>
</a>
</g>
</g>
<!-- Node4&#45;&gt;Node6 -->
<g id="edge5_Node000004_Node000006" class="edge">
<title>Node4&#45;&gt;Node6</title>
<g id="a_edge5_Node000004_Node000006"><a xlink:title=" ">
<path fill="none" stroke="#63b8ff" d="M412.08,-226.54C432.59,-221.42 457.57,-215.17 478.7,-209.89"/>
<polygon fill="#63b8ff" stroke="#63b8ff" points="479.35,-213.33 488.2,-207.51 477.65,-206.54 479.35,-213.33"/>
</a>
</g>
</g>
<!-- Node7&#45;&gt;Node6 -->
<g id="edge15_Node000007_Node000006" class="edge">
<title>Node7&#45;&gt;Node6</title>
<g id="a_edge15_Node000007_Node000006"><a xlink:title=" ">
<path fill="none" stroke="#63b8ff" d="M244.37,-138.25C261.74,-144.92 282.68,-152.35 302,-157.62 362.28,-174.08 433.59,-185.95 478.75,-192.56"/>
<polygon fill="#63b8ff" stroke="#63b8ff" points="478.03,-195.99 488.42,-193.95 479.02,-189.06 478.03,-195.99"/>
</a>
</g>
</g>
<!-- Node8 -->
<g id="Node000008" class="node">
<title>Node8</title>
<g id="a_Node000008"><a xlink:href="linear__algebra_8h.html#aa7300726a97d3b54a88218b1d5874f9a" target="_top" xlink:title="Add two 2D vectors.">
<polygon fill="white" stroke="#666666" points="559.38,-151.25 490.12,-151.25 490.12,-132 559.38,-132 559.38,-151.25"/>
<text text-anchor="middle" x="524.75" y="-137.75" font-family="Helvetica,sans-Serif" font-size="10.00">vector2_add</text>
</a>
</g>
</g>
<!-- Node7&#45;&gt;Node8 -->
<g id="edge7_Node000007_Node000008" class="edge">
<title>Node7&#45;&gt;Node8</title>
<g id="a_edge7_Node000007_Node000008"><a xlink:title=" ">
<path fill="none" stroke="#63b8ff" d="M266.46,-136.45C278.19,-138.6 290.43,-140.49 302,-141.62 362.85,-147.6 433.54,-146.16 478.44,-144.21"/>
<polygon fill="#63b8ff" stroke="#63b8ff" points="478.5,-147.71 488.33,-143.75 478.17,-140.72 478.5,-147.71"/>
</a>
</g>
</g>
<!-- Node9 -->
<g id="Node000009" class="node">
<title>Node9</title>
<g id="a_Node000009"><a xlink:href="linear__algebra_8h.html#a8575fb293573e4a074fc3182529502ad" target="_top" xlink:title="Midpoint of two 2D points.">
<polygon fill="white" stroke="#666666" points="415.88,-132.25 325.62,-132.25 325.62,-113 415.88,-113 415.88,-132.25"/>
<text text-anchor="middle" x="370.75" y="-118.75" font-family="Helvetica,sans-Serif" font-size="10.00">vector2_midpoint</text>
</a>
</g>
</g>
<!-- Node7&#45;&gt;Node9 -->
<g id="edge8_Node000007_Node000009" class="edge">
<title>Node7&#45;&gt;Node9</title>
<g id="a_edge8_Node000007_Node000009"><a xlink:title=" ">
<path fill="none" stroke="#63b8ff" d="M266.12,-122.62C281.68,-122.62 298.37,-122.62 313.71,-122.62"/>
<polygon fill="#63b8ff" stroke="#63b8ff" points="313.62,-126.13 323.62,-122.63 313.62,-119.13 313.62,-126.13"/>
</a>
</g>
</g>
<!-- Node10 -->
<g id="Node000010" class="node">
<title>Node10</title>
<g id="a_Node000010"><a xlink:href="linear__algebra_8h.html#a2e3b62828b3589791a542b58ac32e146" target="_top" xlink:title="Scale a 2D vector by a scalar.">
<polygon fill="white" stroke="#666666" points="563.12,-94.25 486.38,-94.25 486.38,-75 563.12,-75 563.12,-94.25"/>
<text text-anchor="middle" x="524.75" y="-80.75" font-family="Helvetica,sans-Serif" font-size="10.00">vector2_scale</text>
</a>
</g>
</g>
<!-- Node7&#45;&gt;Node10 -->
<g id="edge14_Node000007_Node000010" class="edge">
<title>Node7&#45;&gt;Node10</title>
<g id="a_edge14_Node000007_Node000010"><a xlink:title=" ">
<path fill="none" stroke="#63b8ff" d="M266.3,-109.65C278.1,-107.4 290.41,-105.27 302,-103.62 361.13,-95.26 429.68,-90.07 474.73,-87.27"/>
<polygon fill="#63b8ff" stroke="#63b8ff" points="474.66,-90.78 484.43,-86.68 474.24,-83.79 474.66,-90.78"/>
</a>
</g>
</g>
<!-- Node11 -->
<g id="Node000011" class="node">
<title>Node11</title>
<g id="a_Node000011"><a xlink:href="linear__algebra_8h.html#a5752304986a3ca63d99299cb346b1542" target="_top" xlink:title="Normalize a 2D vector.">
<polygon fill="white" stroke="#666666" points="418.12,-56.25 323.38,-56.25 323.38,-37 418.12,-37 418.12,-56.25"/>
<text text-anchor="middle" x="370.75" y="-42.75" font-family="Helvetica,sans-Serif" font-size="10.00">vector2_normalize</text>
</a>
</g>
</g>
<!-- Node7&#45;&gt;Node11 -->
<g id="edge11_Node000007_Node000011" class="edge">
<title>Node7&#45;&gt;Node11</title>
<g id="a_edge11_Node000007_Node000011"><a xlink:title=" ">
<path fill="none" stroke="#63b8ff" d="M232.42,-106.91C251.38,-95.94 277.78,-81.4 302,-70.62 310.01,-67.06 318.72,-63.65 327.15,-60.57"/>
<polygon fill="#63b8ff" stroke="#63b8ff" points="328.3,-63.87 336.55,-57.24 325.96,-57.28 328.3,-63.87"/>
</a>
</g>
</g>
<!-- Node13 -->
<g id="Node000013" class="node">
<title>Node13</title>
<g id="a_Node000013"><a xlink:href="linear__algebra_8h.html#a18ba363054c85a04d9a933b3fa6201c9" target="_top" xlink:title="Rotate a 2D vector 90 degrees counterclockwise.">
<polygon fill="white" stroke="#666666" points="426.38,-19.25 315.12,-19.25 315.12,0 426.38,0 426.38,-19.25"/>
<text text-anchor="middle" x="370.75" y="-5.75" font-family="Helvetica,sans-Serif" font-size="10.00">vector2_perpendicular</text>
</a>
</g>
</g>
<!-- Node7&#45;&gt;Node13 -->
<g id="edge13_Node000007_Node000013" class="edge">
<title>Node7&#45;&gt;Node13</title>
<g id="a_edge13_Node000007_Node000013"><a xlink:title=" ">
<path fill="none" stroke="#63b8ff" d="M217.6,-106.96C233.96,-85.76 266.01,-48.24 302,-27.62 304.32,-26.3 306.73,-25.07 309.22,-23.92"/>
<polygon fill="#63b8ff" stroke="#63b8ff" points="310.33,-27.25 318.31,-20.27 307.72,-20.75 310.33,-27.25"/>
</a>
</g>
</g>
<!-- Node9&#45;&gt;Node8 -->
<g id="edge9_Node000009_Node000008" class="edge">
<title>Node9&#45;&gt;Node8</title>
<g id="a_edge9_Node000009_Node000008"><a xlink:title=" ">
<path fill="none" stroke="#63b8ff" d="M416.12,-128.17C435.75,-130.63 458.81,-133.51 478.54,-135.97"/>
<polygon fill="#63b8ff" stroke="#63b8ff" points="477.86,-139.42 488.22,-137.18 478.73,-132.47 477.86,-139.42"/>
</a>
</g>
</g>
<!-- Node9&#45;&gt;Node10 -->
<g id="edge10_Node000009_Node000010" class="edge">
<title>Node9&#45;&gt;Node10</title>
<g id="a_edge10_Node000009_Node000010"><a xlink:title=" ">
<path fill="none" stroke="#63b8ff" d="M412.08,-112.54C431.45,-107.7 454.82,-101.86 475.16,-96.77"/>
<polygon fill="#63b8ff" stroke="#63b8ff" points="475.78,-100.22 484.63,-94.4 474.08,-93.43 475.78,-100.22"/>
</a>
</g>
</g>
<!-- Node12 -->
<g id="Node000012" class="node">
<title>Node12</title>
<g id="a_Node000012"><a xlink:href="linear__algebra_8h.html#a6f4c78f15b63d790c3bb5dbed5c71261" target="_top" xlink:title="Calculate the magnitude of a 2D vector.">
<polygon fill="white" stroke="#666666" points="574,-56.25 475.5,-56.25 475.5,-37 574,-37 574,-56.25"/>
<text text-anchor="middle" x="524.75" y="-42.75" font-family="Helvetica,sans-Serif" font-size="10.00">vector2_magnitude</text>
</a>
</g>
</g>
<!-- Node11&#45;&gt;Node12 -->
<g id="edge12_Node000011_Node000012" class="edge">
<title>Node11&#45;&gt;Node12</title>
<g id="a_edge12_Node000011_Node000012"><a xlink:title=" ">
<path fill="none" stroke="#63b8ff" d="M418.6,-46.62C432.91,-46.62 448.86,-46.62 463.92,-46.62"/>
<polygon fill="#63b8ff" stroke="#63b8ff" points="463.71,-50.13 473.71,-46.63 463.71,-43.13 463.71,-50.13"/>
</a>
</g>
</g>
</g>
</svg>

<g id="navigator" transform="translate(0 0)" fill="#404254">
  <rect fill="#f2f5e9" fill-opacity="0.5" stroke="#606060" stroke-width=".5" x="0" y="0" width="60" height="60"/>
  <use id="zoomplus" xlink:href="#zoomPlus" x="17" y="9" onmousedown="handleZoom(evt,'in')"/>
  <use id="zoomminus" xlink:href="#zoomMin" x="42" y="9" onmousedown="handleZoom(evt,'out')"/>
  <use id="reset" xlink:href="#resetDef" x="30" y="36" onmousedown="handleReset()"/>
   <use id="arrowup" xlink:href="#arrowUp" x="0" y="0" onmousedown="handlePan(0,-1)"/>
  <use id="arrowright" xlink:href="#arrowRight" x="0" y="0" onmousedown="handlePan(1,0)"/>
  <use id="arrowdown" xlink:href="#arrowDown" x="0" y="0" onmousedown="handlePan(0,1)"/>
  <use id="arrowleft" xlink:href="#arrowLeft" x="0" y="0" onmousedown="handlePan(-1,0)"/>
</g>
<svg viewBox="0 0 15 15" width="100%" height="30px" preserveAspectRatio="xMaxYMin meet">
 <g id="arrow_out" transform="scale(0.3 0.3)">
  <a xlink:href="lap__timer_8c_ac15d5d84d2d64875ce0d0c0352af35e3_cgraph_org.svg" target="_base">
   <rect id="button" ry="5" rx="5" y="6" x="6" height="38" width="38"
        fill="#f2f5e9" fill-opacity="0.5" stroke="#606060" stroke-width="1.0"/>
   <path id="arrow"
     d="M 11.500037,31.436501 C 11.940474,20.09759 22.043105,11.32322 32.158766,21.979434 L 37.068811,17.246167 C 37.068811,17.246167 37.088388,32 37.088388,32 L 22.160133,31.978069 C 22.160133,31.978069 26.997745,27.140456 26.997745,27.140456 C 18.528582,18.264221 13.291696,25.230495 11.500037,31.436501 z"
     style="fill:#404040;"/>
  </a>
 </g>
</svg>

<style type='text/css'>
<![CDATA[
[data-mouse-over-selected='false'] { opacity: 0.7; }
[data-mouse-over-selected='true']  { opacity: 1.0; }
]]>
</style>
<script type="application/ecmascript"><![CDATA[
document.addEventListener('DOMContentLoaded', (event) => {
  highlightEdges();
  highlightAdjacentNodes();
});
]]></script>
</svg>
