<?xml version="1.0" encoding="UTF-8" standalone="no"?>
<!DOCTYPE svg PUBLIC "-//W3C//DTD SVG 1.1//EN"
 "http://www.w3.org/Graphics/SVG/1.1/DTD/svg11.dtd">
<!-- Generated by graphviz version 12.2.0 (20241103.1931)
 -->
<!-- Title: vector2_sub Pages: 1 -->
<!--zoomable 127 -->

<svg id="main" version="1.1" xmlns="http://www.w3.org/2000/svg" xmlns:xlink="http://www.w3.org/1999/xlink" xml:space="preserve" onload="init(evt)">

<style type="text/css"><![CDATA[
.node, .edge {opacity: 0.7;}
.node.selected, .edge.selected {opacity: 1;}
.edge:hover path { stroke: red; }
.edge:hover polygon { stroke: red; fill: red; }
]]></style>

<defs>
  <circle id="rim" cx="0" cy="0" r="7"/>
  <circle id="rim2" cx="0" cy="0" r="3.5"/>
  <g id="zoomPlus">
    <use xlink:href="#rim" fill="#404040"><set attributeName="fill" to="#808080" begin="zoomplus.mouseover" end="zoomplus.mouseout"/></use>
    <path d="M-4,0h8M0,-4v8" fill="none" stroke="white" stroke-width="1.5" pointer-events="none"/>
  </g>
  <g id="zoomMin">
    <use xlink:href="#rim" fill="#404040"><set attributeName="fill" to="#808080" begin="zoomminus.mouseover" end="zoomminus.mouseout"/></use>
    <path d="M-4,0h8" fill="none" stroke="white" stroke-width="1.5" pointer-events="none"/>
  </g>
  <g id="arrowUp" transform="translate(30 24)">
    <use xlink:href="#rim"/>
    <path pointer-events="none" fill="none" stroke="white" stroke-width="1.5" d="M0,-3.0v7 M-2.5,-0.5L0,-3.0L2.5,-0.5"/>
  </g>
  <g id="arrowRight" transform="rotate(90) translate(36 -43)">
    <use xlink:href="#rim"/>
    <path pointer-events="none" fill="none" stroke="white" stroke-width="1.5" d="M0,-3.0v7 M-2.5,-0.5L0,-3.0L2.5,-0.5"/>
  </g>
  <g id="arrowDown" transform="rotate(180) translate(-30 -48)">
    <use xlink:href="#rim"/>
    <path pointer-events="none" fill="none" stroke="white" stroke-width="1.5" d="M0,-3.0v7 M-2.5,-0.5L0,-3.0L2.5,-0.5"/>
  </g>
  <g id="arrowLeft" transform="rotate(270) translate(-36 17)">
    <use xlink:href="#rim"/>
    <path pointer-events="none" fill="none" stroke="white" stroke-width="1.5" d="M0,-3.0v7 M-2.5,-0.5L0,-3.0L2.5,-0.5"/>
  </g>
  <g id="resetDef">
    <use xlink:href="#rim2" fill="#404040"><set attributeName="fill" to="#808080" begin="reset.mouseover" end="reset.mouseout"/></use>
  </g>
</defs>
<script type="application/ecmascript">
var viewWidth = 709;
var viewHeight = 127;
var sectionId = 'dynsection-14';
</script>
<script type="application/ecmascript" xlink:href="svg.min.js"/>
<svg id="graph" class="graph">
<g id="viewport">
<title>vector2_sub</title>
<!-- Node1 -->
<g id="Node000001" class="node">
<title>Node1</title>
<g id="a_Node000001"><a xlink:title="Subtract one 2D vector from another.">
<polygon fill="#999999" stroke="#666666" points="701.25,-67.88 632,-67.88 632,-48.62 701.25,-48.62 701.25,-67.88"/>
<text text-anchor="middle" x="666.62" y="-54.38" font-family="Helvetica,sans-Serif" font-size="10.00">vector2_sub</text>
</a>
</g>
</g>
<!-- Node2 -->
<g id="Node000002" class="node">
<title>Node2</title>
<g id="a_Node000002"><a xlink:href="geometry_8h.html#ae32f7f124472f409f1355551b885bba0" target="_top" xlink:title="Build the segment perpendicular to a segment through its midpoint.">
<polygon fill="white" stroke="#666666" points="469.75,-30.5 348,-30.5 348,0 469.75,0 469.75,-30.5"/>
<text text-anchor="start" x="356" y="-17" font-family="Helvetica,sans-Serif" font-size="10.00">segment2_perpendicular</text>
<text text-anchor="middle" x="408.88" y="-5.75" font-family="Helvetica,sans-Serif" font-size="10.00">_bisector</text>
</a>
</g>
</g>
<!-- Node1&#45;&gt;Node2 -->
<g id="edge1_Node000001_Node000002" class="edge">
<title>Node1&#45;&gt;Node2</title>
<g id="a_edge1_Node000001_Node000002"><a xlink:title=" ">
<path fill="none" stroke="#63b8ff" d="M621.7,-45.28C613.22,-43.05 604.37,-40.92 596,-39.25 554.31,-30.91 506.75,-24.84 470.15,-20.89"/>
<polygon fill="#63b8ff" stroke="#63b8ff" points="620.53,-48.59 631.1,-47.83 622.36,-41.83 620.53,-48.59"/>
</a>
</g>
</g>
<!-- Node6 -->
<g id="Node000006" class="node">
<title>Node6</title>
<g id="a_Node000006"><a xlink:href="linear__algebra_8h.html#a72d10b6160875b23b398cfef9e98a361" target="_top" xlink:title="Distance between two 2D points.">
<polygon fill="white" stroke="#666666" points="596,-104.88 505.75,-104.88 505.75,-85.62 596,-85.62 596,-104.88"/>
<text text-anchor="middle" x="550.88" y="-91.38" font-family="Helvetica,sans-Serif" font-size="10.00">vector2_distance</text>
</a>
</g>
</g>
<!-- Node1&#45;&gt;Node6 -->
<g id="edge5_Node000001_Node000006" class="edge">
<title>Node1&#45;&gt;Node6</title>
<g id="a_edge5_Node000001_Node000006"><a xlink:title=" ">
<path fill="none" stroke="#63b8ff" d="M623.99,-71.79C610.41,-76.21 595.58,-81.03 582.92,-85.15"/>
<polygon fill="#63b8ff" stroke="#63b8ff" points="624.68,-75.25 633.1,-68.83 622.51,-68.59 624.68,-75.25"/>
</a>
</g>
</g>
<!-- Node8 -->
<g id="Node000008" class="node">
<title>Node8</title>
<g id="a_Node000008"><a xlink:href="geometry_8h.html#a6e735b8719acb9be09a8055f5a1cdff5" target="_top" xlink:title="Determine which way the path a &#45;&gt; b &#45;&gt; c turns.">
<polygon fill="white" stroke="#666666" points="594.12,-67.88 507.62,-67.88 507.62,-48.62 594.12,-48.62 594.12,-67.88"/>
<text text-anchor="middle" x="550.88" y="-54.38" font-family="Helvetica,sans-Serif" font-size="10.00">vector2_winding</text>
</a>
</g>
</g>
<!-- Node1&#45;&gt;Node8 -->
<g id="edge8_Node000001_Node000008" class="edge">
<title>Node1&#45;&gt;Node8</title>
<g id="a_edge8_Node000001_Node000008"><a xlink:title=" ">
<path fill="none" stroke="#63b8ff" d="M620.37,-58.25C611.75,-58.25 602.76,-58.25 594.24,-58.25"/>
<polygon fill="#63b8ff" stroke="#63b8ff" points="620.29,-61.75 630.29,-58.25 620.29,-54.75 620.29,-61.75"/>
</a>
</g>
</g>
<!-- Node3 -->
<g id="Node000003" class="node">
<title>Node3</title>
<g id="a_Node000003"><a xlink:href="lap__timer_8c.html#ac15d5d84d2d64875ce0d0c0352af35e3" target="_top" xlink:title=" ">
<polygon fill="white" stroke="#666666" points="312,-67.88 203.75,-67.88 203.75,-48.62 312,-48.62 312,-67.88"/>
<text text-anchor="middle" x="257.88" y="-54.38" font-family="Helvetica,sans-Serif" font-size="10.00">lap_timer_l2_crossed</text>
</a>
</g>
</g>
<!-- Node2&#45;&gt;Node3 -->
<g id="edge2_Node000002_Node000003" class="edge">
<title>Node2&#45;&gt;Node3</title>
<g id="a_edge2_Node000002_Node000003"><a xlink:title=" ">
<path fill="none" stroke="#63b8ff" d="M342.73,-34.05C325.9,-38.91 308.41,-43.95 293.8,-48.17"/>
<polygon fill="#63b8ff" stroke="#63b8ff" points="343.57,-37.45 352.21,-31.32 341.63,-30.73 343.57,-37.45"/>
</a>
</g>
</g>
<!-- Node4 -->
<g id="Node000004" class="node">
<title>Node4</title>
<g id="a_Node000004"><a xlink:href="lap__timer_8c.html#a382636387f4db3d2b08c71b5e7c03f2b" target="_top" xlink:title=" ">
<polygon fill="white" stroke="#666666" points="167.75,-104.88 73,-104.88 73,-85.62 167.75,-85.62 167.75,-104.88"/>
<text text-anchor="middle" x="120.38" y="-91.38" font-family="Helvetica,sans-Serif" font-size="10.00">lap_timer_periodic</text>
</a>
</g>
</g>
<!-- Node3&#45;&gt;Node4 -->
<g id="edge3_Node000003_Node000004" class="edge">
<title>Node3&#45;&gt;Node4</title>
<g id="a_edge3_Node000003_Node000004"><a xlink:title=" ">
<path fill="none" stroke="#63b8ff" d="M209.19,-71.27C192.5,-75.83 174.03,-80.87 158.36,-85.15"/>
<polygon fill="#63b8ff" stroke="#63b8ff" points="209.66,-74.77 218.39,-68.76 207.82,-68.02 209.66,-74.77"/>
</a>
</g>
</g>
<!-- Node5 -->
<g id="Node000005" class="node">
<title>Node5</title>
<g id="a_Node000005"><a xlink:href="dashboard_2main_8c.html#a840291bc02cba5474a4cb46a9b9566fe" target="_top" xlink:title=" ">
<polygon fill="white" stroke="#666666" points="37,-104.88 0,-104.88 0,-85.62 37,-85.62 37,-104.88"/>
<text text-anchor="middle" x="18.5" y="-91.38" font-family="Helvetica,sans-Serif" font-size="10.00">main</text>
</a>
</g>
</g>
<!-- Node4&#45;&gt;Node5 -->
<g id="edge4_Node000004_Node000005" class="edge">
<title>Node4&#45;&gt;Node5</title>
<g id="a_edge4_Node000004_Node000005"><a xlink:title=" ">
<path fill="none" stroke="#63b8ff" d="M61.16,-95.25C52.5,-95.25 44.18,-95.25 37.28,-95.25"/>
<polygon fill="#63b8ff" stroke="#63b8ff" points="61.14,-98.75 71.14,-95.25 61.14,-91.75 61.14,-98.75"/>
</a>
</g>
</g>
<!-- Node6&#45;&gt;Node4 -->
<g id="edge6_Node000006_Node000004" class="edge">
<title>Node6&#45;&gt;Node4</title>
<g id="a_edge6_Node000006_Node000004"><a xlink:title=" ">
<path fill="none" stroke="#63b8ff" d="M504.23,-108.01C493.04,-110.6 481.04,-112.93 469.75,-114.25 362.21,-126.83 235,-112.58 168.02,-102.83"/>
<polygon fill="#63b8ff" stroke="#63b8ff" points="504.73,-111.49 513.62,-105.72 503.07,-104.69 504.73,-111.49"/>
</a>
</g>
</g>
<!-- Node7 -->
<g id="Node000007" class="node">
<title>Node7</title>
<g id="a_Node000007"><a xlink:href="geometry_8h.html#a5ab177ab3e51deea97c8fcdcea2c72e4" target="_top" xlink:title="Calculate the length of a segment.">
<polygon fill="white" stroke="#666666" points="454,-104.88 363.75,-104.88 363.75,-85.62 454,-85.62 454,-104.88"/>
<text text-anchor="middle" x="408.88" y="-91.38" font-family="Helvetica,sans-Serif" font-size="10.00">segment2_length</text>
</a>
</g>
</g>
<!-- Node6&#45;&gt;Node7 -->
<g id="edge7_Node000006_Node000007" class="edge">
<title>Node6&#45;&gt;Node7</title>
<g id="a_edge7_Node000006_Node000007"><a xlink:title=" ">
<path fill="none" stroke="#63b8ff" d="M494.19,-95.25C480.96,-95.25 467.02,-95.25 454.36,-95.25"/>
<polygon fill="#63b8ff" stroke="#63b8ff" points="494.06,-98.75 504.06,-95.25 494.06,-91.75 494.06,-98.75"/>
</a>
</g>
</g>
<!-- Node9 -->
<g id="Node000009" class="node">
<title>Node9</title>
<g id="a_Node000009"><a xlink:href="geometry_8h.html#ab7709673624c807ab7925b7c87f0e00e" target="_top" xlink:title="Test whether two segments intersect, including collinear overlap.">
<polygon fill="white" stroke="#666666" points="462.25,-67.88 355.5,-67.88 355.5,-48.62 462.25,-48.62 462.25,-67.88"/>
<text text-anchor="middle" x="408.88" y="-54.38" font-family="Helvetica,sans-Serif" font-size="10.00">segment2_intersects</text>
</a>
</g>
</g>
<!-- Node8&#45;&gt;Node9 -->
<g id="edge9_Node000008_Node000009" class="edge">
<title>Node8&#45;&gt;Node9</title>
<g id="a_edge9_Node000008_Node000009"><a xlink:title=" ">
<path fill="none" stroke="#63b8ff" d="M496.23,-58.25C485.17,-58.25 473.54,-58.25 462.52,-58.25"/>
<polygon fill="#63b8ff" stroke="#63b8ff" points="495.98,-61.75 505.98,-58.25 495.98,-54.75 495.98,-61.75"/>
</a>
</g>
</g>
<!-- Node9&#45;&gt;Node3 -->
<g id="edge10_Node000009_Node000003" class="edge">
<title>Node9&#45;&gt;Node3</title>
<g id="a_edge10_Node000009_Node000003"><a xlink:title=" ">
<path fill="none" stroke="#63b8ff" d="M344.06,-58.25C333.53,-58.25 322.7,-58.25 312.44,-58.25"/>
<polygon fill="#63b8ff" stroke="#63b8ff" points="343.83,-61.75 353.83,-58.25 343.83,-54.75 343.83,-61.75"/>
</a>
</g>
</g>
</g>
</svg>

<g id="navigator" transform="translate(0 0)" fill="#404254">
  <rect fill="#f2f5e9" fill-opacity="0.5" stroke="#606060" stroke-width=".5" x="0" y="0" width="60" height="60"/>
  <use id="zoomplus" xlink:href="#zoomPlus" x="17" y="9" onmousedown="handleZoom(evt,'in')"/>
  <use id="zoomminus" xlink:href="#zoomMin" x="42" y="9" onmousedown="handleZoom(evt,'out')"/>
  <use id="reset" xlink:href="#resetDef" x="30" y="36" onmousedown="handleReset()"/>
   <use id="arrowup" xlink:href="#arrowUp" x="0" y="0" onmousedown="handlePan(0,-1)"/>
  <use id="arrowright" xlink:href="#arrowRight" x="0" y="0" onmousedown="handlePan(1,0)"/>
  <use id="arrowdown" xlink:href="#arrowDown" x="0" y="0" onmousedown="handlePan(0,1)"/>
  <use id="arrowleft" xlink:href="#arrowLeft" x="0" y="0" onmousedown="handlePan(-1,0)"/>
</g>
<svg viewBox="0 0 15 15" width="100%" height="30px" preserveAspectRatio="xMaxYMin meet">
 <g id="arrow_out" transform="scale(0.3 0.3)">
  <a xlink:href="linear__algebra_8h_a1ebccdd0fce0cdfa7a931095189887b4_icgraph_org.svg" target="_base">
   <rect id="button" ry="5" rx="5" y="6" x="6" height="38" width="38"
        fill="#f2f5e9" fill-opacity="0.5" stroke="#606060" stroke-width="1.0"/>
   <path id="arrow"
     d="M 11.500037,31.436501 C 11.940474,20.09759 22.043105,11.32322 32.158766,21.979434 L 37.068811,17.246167 C 37.068811,17.246167 37.088388,32 37.088388,32 L 22.160133,31.978069 C 22.160133,31.978069 26.997745,27.140456 26.997745,27.140456 C 18.528582,18.264221 13.291696,25.230495 11.500037,31.436501 z"
     style="fill:#404040;"/>
  </a>
 </g>
</svg>

<style type='text/css'>
<![CDATA[
[data-mouse-over-selected='false'] { opacity: 0.7; }
[data-mouse-over-selected='true']  { opacity: 1.0; }
]]>
</style>
<script type="application/ecmascript"><![CDATA[
document.addEventListener('DOMContentLoaded', (event) => {
  highlightEdges();
  highlightAdjacentNodes();
});
]]></script>
</svg>
