<?xml version="1.0" encoding="UTF-8" standalone="no"?>
<!DOCTYPE svg PUBLIC "-//W3C//DTD SVG 1.1//EN"
 "http://www.w3.org/Graphics/SVG/1.1/DTD/svg11.dtd">
<!-- Generated by graphviz version 12.2.0 (20241103.1931)
 -->
<!-- Title: firmware/common/utils/max.h Pages: 1 -->
<!--zoomable 183 -->

<svg id="main" version="1.1" xmlns="http://www.w3.org/2000/svg" xmlns:xlink="http://www.w3.org/1999/xlink" xml:space="preserve" onload="init(evt)">

<style type="text/css"><![CDATA[
.node, .edge {opacity: 0.7;}
.node.selected, .edge.selected {opacity: 1;}
.edge:hover path { stroke: red; }
.edge:hover polygon { stroke: red; fill: red; }
]]></style>

<defs>
  <circle id="rim" cx="0" cy="0" r="7"/>
  <circle id="rim2" cx="0" cy="0" r="3.5"/>
  <g id="zoomPlus">
    <use xlink:href="#rim" fill="#404040"><set attributeName="fill" to="#808080" begin="zoomplus.mouseover" end="zoomplus.mouseout"/></use>
    <path d="M-4,0h8M0,-4v8" fill="none" stroke="white" stroke-width="1.5" pointer-events="none"/>
  </g>
  <g id="zoomMin">
    <use xlink:href="#rim" fill="#404040"><set attributeName="fill" to="#808080" begin="zoomminus.mouseover" end="zoomminus.mouseout"/></use>
    <path d="M-4,0h8" fill="none" stroke="white" stroke-width="1.5" pointer-events="none"/>
  </g>
  <g id="arrowUp" transform="translate(30 24)">
    <use xlink:href="#rim"/>
    <path pointer-events="none" fill="none" stroke="white" stroke-width="1.5" d="M0,-3.0v7 M-2.5,-0.5L0,-3.0L2.5,-0.5"/>
  </g>
  <g id="arrowRight" transform="rotate(90) translate(36 -43)">
    <use xlink:href="#rim"/>
    <path pointer-events="none" fill="none" stroke="white" stroke-width="1.5" d="M0,-3.0v7 M-2.5,-0.5L0,-3.0L2.5,-0.5"/>
  </g>
  <g id="arrowDown" transform="rotate(180) translate(-30 -48)">
    <use xlink:href="#rim"/>
    <path pointer-events="none" fill="none" stroke="white" stroke-width="1.5" d="M0,-3.0v7 M-2.5,-0.5L0,-3.0L2.5,-0.5"/>
  </g>
  <g id="arrowLeft" transform="rotate(270) translate(-36 17)">
    <use xlink:href="#rim"/>
    <path pointer-events="none" fill="none" stroke="white" stroke-width="1.5" d="M0,-3.0v7 M-2.5,-0.5L0,-3.0L2.5,-0.5"/>
  </g>
  <g id="resetDef">
    <use xlink:href="#rim2" fill="#404040"><set attributeName="fill" to="#808080" begin="reset.mouseover" end="reset.mouseout"/></use>
  </g>
</defs>
<script type="application/ecmascript">
var viewWidth = 579;
var viewHeight = 183;
var sectionId = 'dynsection-0';
</script>
<script type="application/ecmascript" xlink:href="svg.min.js"/>
<svg id="graph" class="graph">
<g id="viewport">
<title>firmware/common/utils/max.h</title>
<!-- Node1 -->
<g id="Node000001" class="node">
<title>Node1</title>
<g id="a_Node000001"><a xlink:title="Maximum value functions utility header.">
<polygon fill="#999999" stroke="#666666" points="343.62,-174.75 229.38,-174.75 229.38,-144.25 343.62,-144.25 343.62,-174.75"/>
<text text-anchor="start" x="237.38" y="-161.25" font-family="Helvetica,sans-Serif" font-size="10.00">firmware/common/utils</text>
<text text-anchor="middle" x="286.5" y="-150" font-family="Helvetica,sans-Serif" font-size="10.00">/max.h</text>
</a>
</g>
</g>
<!-- Node2 -->
<g id="Node000002" class="node">
<title>Node2</title>
<g id="a_Node000002"><a xlink:href="geometry_8h.html" target="_top" xlink:title="Planar computational geometry utility header.">
<polygon fill="white" stroke="#666666" points="123.62,-102.62 9.37,-102.62 9.37,-72.12 123.62,-72.12 123.62,-102.62"/>
<text text-anchor="start" x="17.38" y="-89.12" font-family="Helvetica,sans-Serif" font-size="10.00">firmware/common/utils</text>
<text text-anchor="middle" x="66.5" y="-77.88" font-family="Helvetica,sans-Serif" font-size="10.00">/geometry.h</text>
</a>
</g>
</g>
<!-- Node1&#45;&gt;Node2 -->
<g id="edge1_Node000001_Node000002" class="edge">
<title>Node1&#45;&gt;Node2</title>
<g id="a_edge1_Node000001_Node000002"><a xlink:title=" ">
<path fill="none" stroke="#63b8ff" d="M229.44,-140.31C193.08,-128.72 146.57,-113.9 112.56,-103.06"/>
<polygon fill="#63b8ff" stroke="#63b8ff" points="228.35,-143.64 238.94,-143.34 230.47,-136.97 228.35,-143.64"/>
</a>
</g>
</g>
<!-- Node4 -->
<g id="Node000004" class="node">
<title>Node4</title>
<g id="a_Node000004"><a xlink:href="race_8c.html" target="_top" xlink:title="Race page implementation.">
<polygon fill="white" stroke="#666666" points="285.62,-102.62 141.38,-102.62 141.38,-72.12 285.62,-72.12 285.62,-102.62"/>
<text text-anchor="start" x="149.38" y="-89.12" font-family="Helvetica,sans-Serif" font-size="10.00">firmware/source/dashboard</text>
<text text-anchor="middle" x="213.5" y="-77.88" font-family="Helvetica,sans-Serif" font-size="10.00">/driver_interface/pages/race.c</text>
</a>
</g>
</g>
<!-- Node1&#45;&gt;Node4 -->
<g id="edge3_Node000001_Node000004" class="edge">
<title>Node1&#45;&gt;Node4</title>
<g id="a_edge3_Node000001_Node000004"><a xlink:title=" ">
<path fill="none" stroke="#63b8ff" d="M263.18,-136.1C251.86,-125.23 238.59,-112.47 228.61,-102.89"/>
<polygon fill="#63b8ff" stroke="#63b8ff" points="260.65,-138.52 270.28,-142.92 265.5,-133.47 260.65,-138.52"/>
</a>
</g>
</g>
<!-- Node5 -->
<g id="Node000005" class="node">
<title>Node5</title>
<g id="a_Node000005"><a xlink:href="cooling__fsm_8c.html" target="_top" xlink:title=" ">
<polygon fill="white" stroke="#666666" points="416.88,-102.62 304.12,-102.62 304.12,-72.12 416.88,-72.12 416.88,-102.62"/>
<text text-anchor="start" x="312.12" y="-89.12" font-family="Helvetica,sans-Serif" font-size="10.00">firmware/source/pdu</text>
<text text-anchor="middle" x="360.5" y="-77.88" font-family="Helvetica,sans-Serif" font-size="10.00">/cooling/cooling_fsm.c</text>
</a>
</g>
</g>
<!-- Node1&#45;&gt;Node5 -->
<g id="edge4_Node000001_Node000005" class="edge">
<title>Node1&#45;&gt;Node5</title>
<g id="a_edge4_Node000001_Node000005"><a xlink:title=" ">
<path fill="none" stroke="#63b8ff" d="M310.13,-136.1C321.61,-125.23 335.07,-112.47 345.19,-102.89"/>
<polygon fill="#63b8ff" stroke="#63b8ff" points="307.78,-133.51 302.93,-142.93 312.6,-138.59 307.78,-133.51"/>
</a>
</g>
</g>
<!-- Node6 -->
<g id="Node000006" class="node">
<title>Node6</title>
<g id="a_Node000006"><a xlink:href="control__loop_8c.html" target="_top" xlink:title="Main torque vectoring control loop.">
<polygon fill="white" stroke="#666666" points="570.5,-108.25 434.5,-108.25 434.5,-66.5 570.5,-66.5 570.5,-108.25"/>
<text text-anchor="start" x="442.5" y="-94.75" font-family="Helvetica,sans-Serif" font-size="10.00">firmware/source/torque</text>
<text text-anchor="start" x="442.5" y="-83.5" font-family="Helvetica,sans-Serif" font-size="10.00">_vector/control_loop/control</text>
<text text-anchor="middle" x="502.5" y="-72.25" font-family="Helvetica,sans-Serif" font-size="10.00">_loop.c</text>
</a>
</g>
</g>
<!-- Node1&#45;&gt;Node6 -->
<g id="edge5_Node000001_Node000006" class="edge">
<title>Node1&#45;&gt;Node6</title>
<g id="a_edge5_Node000001_Node000006"><a xlink:title=" ">
<path fill="none" stroke="#63b8ff" d="M342.46,-140.33C372.36,-130.63 409.25,-118.65 440.08,-108.64"/>
<polygon fill="#63b8ff" stroke="#63b8ff" points="341.65,-136.92 333.22,-143.33 343.81,-143.57 341.65,-136.92"/>
</a>
</g>
</g>
<!-- Node3 -->
<g id="Node000003" class="node">
<title>Node3</title>
<g id="a_Node000003"><a xlink:href="lap__timer_8c.html" target="_top" xlink:title="DASHBOARD lap timer task implementations.">
<polygon fill="white" stroke="#666666" points="133,-30.5 0,-30.5 0,0 133,0 133,-30.5"/>
<text text-anchor="start" x="8" y="-17" font-family="Helvetica,sans-Serif" font-size="10.00">firmware/source/dashboard</text>
<text text-anchor="middle" x="66.5" y="-5.75" font-family="Helvetica,sans-Serif" font-size="10.00">/lap_timer/lap_timer.c</text>
</a>
</g>
</g>
<!-- Node2&#45;&gt;Node3 -->
<g id="edge2_Node000002_Node000003" class="edge">
<title>Node2&#45;&gt;Node3</title>
<g id="a_edge2_Node000002_Node000003"><a xlink:title=" ">
<path fill="none" stroke="#63b8ff" d="M66.5,-60.4C66.5,-50.39 66.5,-39.31 66.5,-30.76"/>
<polygon fill="#63b8ff" stroke="#63b8ff" points="63,-60.33 66.5,-70.33 70,-60.33 63,-60.33"/>
</a>
</g>
</g>
</g>
</svg>

<g id="navigator" transform="translate(0 0)" fill="#404254">
  <rect fill="#f2f5e9" fill-opacity="0.5" stroke="#606060" stroke-width=".5" x="0" y="0" width="60" height="60"/>
  <use id="zoomplus" xlink:href="#zoomPlus" x="17" y="9" onmousedown="handleZoom(evt,'in')"/>
  <use id="zoomminus" xlink:href="#zoomMin" x="42" y="9" onmousedown="handleZoom(evt,'out')"/>
  <use id="reset" xlink:href="#resetDef" x="30" y="36" onmousedown="handleReset()"/>
   <use id="arrowup" xlink:href="#arrowUp" x="0" y="0" onmousedown="handlePan(0,-1)"/>
  <use id="arrowright" xlink:href="#arrowRight" x="0" y="0" onmousedown="handlePan(1,0)"/>
  <use id="arrowdown" xlink:href="#arrowDown" x="0" y="0" onmousedown="handlePan(0,1)"/>
  <use id="arrowleft" xlink:href="#arrowLeft" x="0" y="0" onmousedown="handlePan(-1,0)"/>
</g>
<svg viewBox="0 0 15 15" width="100%" height="30px" preserveAspectRatio="xMaxYMin meet">
 <g id="arrow_out" transform="scale(0.3 0.3)">
  <a xlink:href="max_8h__dep__incl_org.svg" target="_base">
   <rect id="button" ry="5" rx="5" y="6" x="6" height="38" width="38"
        fill="#f2f5e9" fill-opacity="0.5" stroke="#606060" stroke-width="1.0"/>
   <path id="arrow"
     d="M 11.500037,31.436501 C 11.940474,20.09759 22.043105,11.32322 32.158766,21.979434 L 37.068811,17.246167 C 37.068811,17.246167 37.088388,32 37.088388,32 L 22.160133,31.978069 C 22.160133,31.978069 26.997745,27.140456 26.997745,27.140456 C 18.528582,18.264221 13.291696,25.230495 11.500037,31.436501 z"
     style="fill:#404040;"/>
  </a>
 </g>
</svg>

<style type='text/css'>
<![CDATA[
[data-mouse-over-selected='false'] { opacity: 0.7; }
[data-mouse-over-selected='true']  { opacity: 1.0; }
]]>
</style>
<script type="application/ecmascript"><![CDATA[
document.addEventListener('DOMContentLoaded', (event) => {
  highlightEdges();
  highlightAdjacentNodes();
});
]]></script>
</svg>
