<?xml version="1.0" encoding="UTF-8" standalone="no"?>
<!DOCTYPE svg PUBLIC "-//W3C//DTD SVG 1.1//EN"
 "http://www.w3.org/Graphics/SVG/1.1/DTD/svg11.dtd">
<!-- Generated by graphviz version 12.2.0 (20241103.1931)
 -->
<!-- Title: firmware/source/dashboard/driver_interface/pages/race.c Pages: 1 -->
<!--zoomable 282 -->

<svg id="main" version="1.1" xmlns="http://www.w3.org/2000/svg" xmlns:xlink="http://www.w3.org/1999/xlink" xml:space="preserve" onload="init(evt)">

<style type="text/css"><![CDATA[
.node, .edge {opacity: 0.7;}
.node.selected, .edge.selected {opacity: 1;}
.edge:hover path { stroke: red; }
.edge:hover polygon { stroke: red; fill: red; }
]]></style>

<defs>
  <circle id="rim" cx="0" cy="0" r="7"/>
  <circle id="rim2" cx="0" cy="0" r="3.5"/>
  <g id="zoomPlus">
    <use xlink:href="#rim" fill="#404040"><set attributeName="fill" to="#808080" begin="zoomplus.mouseover" end="zoomplus.mouseout"/></use>
    <path d="M-4,0h8M0,-4v8" fill="none" stroke="white" stroke-width="1.5" pointer-events="none"/>
  </g>
  <g id="zoomMin">
    <use xlink:href="#rim" fill="#404040"><set attributeName="fill" to="#808080" begin="zoomminus.mouseover" end="zoomminus.mouseout"/></use>
    <path d="M-4,0h8" fill="none" stroke="white" stroke-width="1.5" pointer-events="none"/>
  </g>
  <g id="arrowUp" transform="translate(30 24)">
    <use xlink:href="#rim"/>
    <path pointer-events="none" fill="none" stroke="white" stroke-width="1.5" d="M0,-3.0v7 M-2.5,-0.5L0,-3.0L2.5,-0.5"/>
  </g>
  <g id="arrowRight" transform="rotate(90) translate(36 -43)">
    <use xlink:href="#rim"/>
    <path pointer-events="none" fill="none" stroke="white" stroke-width="1.5" d="M0,-3.0v7 M-2.5,-0.5L0,-3.0L2.5,-0.5"/>
  </g>
  <g id="arrowDown" transform="rotate(180) translate(-30 -48)">
    <use xlink:href="#rim"/>
    <path pointer-events="none" fill="none" stroke="white" stroke-width="1.5" d="M0,-3.0v7 M-2.5,-0.5L0,-3.0L2.5,-0.5"/>
  </g>
  <g id="arrowLeft" transform="rotate(270) translate(-36 17)">
    <use xlink:href="#rim"/>
    <path pointer-events="none" fill="none" stroke="white" stroke-width="1.5" d="M0,-3.0v7 M-2.5,-0.5L0,-3.0L2.5,-0.5"/>
  </g>
  <g id="resetDef">
    <use xlink:href="#rim2" fill="#404040"><set attributeName="fill" to="#808080" begin="reset.mouseover" end="reset.mouseout"/></use>
  </g>
</defs>
<script type="application/ecmascript">
var viewWidth = 678;
var viewHeight = 282;
var sectionId = 'dynsection-0';
</script>
<script type="application/ecmascript" xlink:href="svg.min.js"/>
<svg id="graph" class="graph">
<g id="viewport">
<title>firmware/source/dashboard/driver_interface/pages/race.c</title>
<!-- Node1 -->
<g id="Node000001" class="node">
<title>Node1</title>
<g id="a_Node000001"><a xlink:title="Race page implementation.">
<polygon fill="#999999" stroke="#666666" points="342.25,-274 198,-274 198,-243.5 342.25,-243.5 342.25,-274"/>
<text text-anchor="start" x="206" y="-260.5" font-family="Helvetica,sans-Serif" font-size="10.00">firmware/source/dashboard</text>
<text text-anchor="middle" x="270.12" y="-249.25" font-family="Helvetica,sans-Serif" font-size="10.00">/driver_interface/pages/race.c</text>
</a>
</g>
</g>
<!-- Node2 -->
<g id="Node000002" class="node">
<title>Node2</title>
<g id="a_Node000002"><a xlink:href="race_8h.html" target="_top" xlink:title="Race page implementation.">
<polygon fill="white" stroke="#666666" points="42.25,-207.5 0,-207.5 0,-188.25 42.25,-188.25 42.25,-207.5"/>
<text text-anchor="middle" x="21.12" y="-194" font-family="Helvetica,sans-Serif" font-size="10.00">race.h</text>
</a>
</g>
</g>
<!-- Node1&#45;&gt;Node2 -->
<g id="edge1_Node000001_Node000002" class="edge">
<title>Node1&#45;&gt;Node2</title>
<g id="a_edge1_Node000001_Node000002"><a xlink:title=" ">
<path fill="none" stroke="#63b8ff" d="M201.83,-243.08C161.21,-234.13 108.45,-222.09 53.69,-208.07"/>
<polygon fill="#63b8ff" stroke="#63b8ff" points="54.74,-204.72 44.18,-205.61 52.99,-211.5 54.74,-204.72"/>
</a>
</g>
</g>
<!-- Node3 -->
<g id="Node000003" class="node">
<title>Node3</title>
<g id="a_Node000003"><a xlink:href="nextion_8h.html" target="_top" xlink:title="Nextion display driver interface.">
<polygon fill="white" stroke="#666666" points="188.38,-207.5 59.88,-207.5 59.88,-188.25 188.38,-188.25 188.38,-207.5"/>
<text text-anchor="middle" x="124.12" y="-194" font-family="Helvetica,sans-Serif" font-size="10.00">common/nextion/nextion.h</text>
</a>
</g>
</g>
<!-- Node1&#45;&gt;Node3 -->
<g id="edge2_Node000001_Node000003" class="edge">
<title>Node1&#45;&gt;Node3</title>
<g id="a_edge2_Node000001_Node000003"><a xlink:title=" ">
<path fill="none" stroke="#63b8ff" d="M233.66,-243.05C210.14,-233.56 179.81,-221.33 157.03,-212.14"/>
<polygon fill="#63b8ff" stroke="#63b8ff" points="158.5,-208.96 147.92,-208.47 155.88,-215.46 158.5,-208.96"/>
</a>
</g>
</g>
<!-- Node7 -->
<g id="Node000007" class="node">
<title>Node7</title>
<g id="a_Node000007"><a xlink:title=" ">
<polygon fill="#e0e0e0" stroke="#999999" points="283.25,-152.25 175,-152.25 175,-121.75 283.25,-121.75 283.25,-152.25"/>
<text text-anchor="start" x="183" y="-138.75" font-family="Helvetica,sans-Serif" font-size="10.00">can_library/generated</text>
<text text-anchor="middle" x="229.12" y="-127.5" font-family="Helvetica,sans-Serif" font-size="10.00">/DASHBOARD.h</text>
</a>
</g>
</g>
<!-- Node1&#45;&gt;Node7 -->
<g id="edge7_Node000001_Node000007" class="edge">
<title>Node1&#45;&gt;Node7</title>
<g id="a_edge7_Node000001_Node000007"><a xlink:title=" ">
<path fill="none" stroke="#63b8ff" d="M256.81,-243.09C249.06,-233.64 239.9,-220.7 235.12,-207.5 230.11,-193.64 228.51,-177.24 228.2,-163.86"/>
<polygon fill="#63b8ff" stroke="#63b8ff" points="231.7,-164.1 228.23,-154.09 224.7,-164.08 231.7,-164.1"/>
</a>
</g>
</g>
<!-- Node8 -->
<g id="Node000008" class="node">
<title>Node8</title>
<g id="a_Node000008"><a xlink:href="pedals_8h.html" target="_top" xlink:title=" ">
<polygon fill="white" stroke="#666666" points="296.12,-207.5 244.12,-207.5 244.12,-188.25 296.12,-188.25 296.12,-207.5"/>
<text text-anchor="middle" x="270.12" y="-194" font-family="Helvetica,sans-Serif" font-size="10.00">pedals.h</text>
</a>
</g>
</g>
<!-- Node1&#45;&gt;Node8 -->
<g id="edge8_Node000001_Node000008" class="edge">
<title>Node1&#45;&gt;Node8</title>
<g id="a_edge8_Node000001_Node000008"><a xlink:title=" ">
<path fill="none" stroke="#63b8ff" d="M270.12,-243.2C270.12,-235.96 270.12,-227.09 270.12,-219.19"/>
<polygon fill="#63b8ff" stroke="#63b8ff" points="273.63,-219.46 270.13,-209.46 266.63,-219.46 273.63,-219.46"/>
</a>
</g>
</g>
<!-- Node9 -->
<g id="Node000009" class="node">
<title>Node9</title>
<g id="a_Node000009"><a xlink:href="max_8h.html" target="_top" xlink:title="Maximum value functions utility header.">
<polygon fill="white" stroke="#666666" points="417.62,-207.5 314.62,-207.5 314.62,-188.25 417.62,-188.25 417.62,-207.5"/>
<text text-anchor="middle" x="366.12" y="-194" font-family="Helvetica,sans-Serif" font-size="10.00">common/utils/max.h</text>
</a>
</g>
</g>
<!-- Node1&#45;&gt;Node9 -->
<g id="edge11_Node000001_Node000009" class="edge">
<title>Node1&#45;&gt;Node9</title>
<g id="a_edge11_Node000001_Node000009"><a xlink:title=" ">
<path fill="none" stroke="#63b8ff" d="M293.86,-243.2C308.47,-234.23 327.16,-222.77 341.88,-213.75"/>
<polygon fill="#63b8ff" stroke="#63b8ff" points="343.34,-216.95 350.04,-208.74 339.68,-210.99 343.34,-216.95"/>
</a>
</g>
</g>
<!-- Node10 -->
<g id="Node000010" class="node">
<title>Node10</title>
<g id="a_Node000010"><a xlink:href="colors_8h.html" target="_top" xlink:title="Color definitions for LCD display.">
<polygon fill="white" stroke="#666666" points="389,-146.62 339.25,-146.62 339.25,-127.38 389,-127.38 389,-146.62"/>
<text text-anchor="middle" x="364.12" y="-133.12" font-family="Helvetica,sans-Serif" font-size="10.00">colors.h</text>
</a>
</g>
</g>
<!-- Node1&#45;&gt;Node10 -->
<g id="edge12_Node000001_Node000010" class="edge">
<title>Node1&#45;&gt;Node10</title>
<g id="a_edge12_Node000001_Node000010"><a xlink:title=" ">
<path fill="none" stroke="#63b8ff" d="M342.48,-253.08C373.78,-247.04 407.64,-234.2 427.12,-207.5 441.93,-187.22 416.05,-166.16 393.12,-152.61"/>
<polygon fill="#63b8ff" stroke="#63b8ff" points="395.04,-149.67 384.6,-147.86 391.62,-155.79 395.04,-149.67"/>
</a>
</g>
</g>
<!-- Node11 -->
<g id="Node000011" class="node">
<title>Node11</title>
<g id="a_Node000011"><a xlink:href="lap__timer_8h.html" target="_top" xlink:title="DASHBOARD lap timer task implementations.">
<polygon fill="white" stroke="#666666" points="537.75,-207.5 474.5,-207.5 474.5,-188.25 537.75,-188.25 537.75,-207.5"/>
<text text-anchor="middle" x="506.12" y="-194" font-family="Helvetica,sans-Serif" font-size="10.00">lap_timer.h</text>
</a>
</g>
</g>
<!-- Node1&#45;&gt;Node11 -->
<g id="edge14_Node000001_Node000011" class="edge">
<title>Node1&#45;&gt;Node11</title>
<g id="a_edge14_Node000001_Node000011"><a xlink:title=" ">
<path fill="none" stroke="#63b8ff" d="M329.07,-243.05C370.64,-232.67 425.39,-219.02 462.94,-209.65"/>
<polygon fill="#63b8ff" stroke="#63b8ff" points="463.68,-213.07 472.54,-207.25 461.99,-206.28 463.68,-213.07"/>
</a>
</g>
</g>
<!-- Node4 -->
<g id="Node000004" class="node">
<title>Node4</title>
<g id="a_Node000004"><a xlink:title=" ">
<polygon fill="#e0e0e0" stroke="#999999" points="334.88,-80.12 287.38,-80.12 287.38,-60.88 334.88,-60.88 334.88,-80.12"/>
<text text-anchor="middle" x="311.12" y="-66.62" font-family="Helvetica,sans-Serif" font-size="10.00">stdint.h</text>
</a>
</g>
</g>
<!-- Node3&#45;&gt;Node4 -->
<g id="edge3_Node000003_Node000004" class="edge">
<title>Node3&#45;&gt;Node4</title>
<g id="a_edge3_Node000003_Node000004"><a xlink:title=" ">
<path fill="none" stroke="#63b8ff" d="M126.72,-188.1C131.77,-172.53 144.36,-139.98 166.12,-121.75 197.77,-95.24 244.24,-82.41 275.99,-76.41"/>
<polygon fill="#63b8ff" stroke="#63b8ff" points="276.22,-79.93 285.47,-74.76 275.02,-73.03 276.22,-79.93"/>
</a>
</g>
</g>
<!-- Node5 -->
<g id="Node000005" class="node">
<title>Node5</title>
<g id="a_Node000005"><a xlink:href="strbuf_8h.html" target="_top" xlink:title="Fixed&#45;size string builder. Useful for building large CMD strings before transmission.">
<polygon fill="white" stroke="#666666" points="119.25,-146.62 71,-146.62 71,-127.38 119.25,-127.38 119.25,-146.62"/>
<text text-anchor="middle" x="95.12" y="-133.12" font-family="Helvetica,sans-Serif" font-size="10.00">strbuf.h</text>
</a>
</g>
</g>
<!-- Node3&#45;&gt;Node5 -->
<g id="edge4_Node000003_Node000005" class="edge">
<title>Node3&#45;&gt;Node5</title>
<g id="a_edge4_Node000003_Node000005"><a xlink:title=" ">
<path fill="none" stroke="#63b8ff" d="M119.72,-187.93C115.72,-179.81 109.68,-167.54 104.58,-157.2"/>
<polygon fill="#63b8ff" stroke="#63b8ff" points="107.8,-155.81 100.24,-148.38 101.52,-158.9 107.8,-155.81"/>
</a>
</g>
</g>
<!-- Node5&#45;&gt;Node4 -->
<g id="edge5_Node000005_Node000004" class="edge">
<title>Node5&#45;&gt;Node4</title>
<g id="a_edge5_Node000005_Node000004"><a xlink:title=" ">
<path fill="none" stroke="#63b8ff" d="M118.33,-126.95C123.19,-125.15 128.3,-123.33 133.12,-121.75 182.27,-105.63 240.04,-89.9 276.12,-80.46"/>
<polygon fill="#63b8ff" stroke="#63b8ff" points="276.77,-83.9 285.57,-78 275.01,-77.13 276.77,-83.9"/>
</a>
</g>
</g>
<!-- Node6 -->
<g id="Node000006" class="node">
<title>Node6</title>
<g id="a_Node000006"><a xlink:title=" ">
<polygon fill="#e0e0e0" stroke="#999999" points="120.38,-80.12 69.88,-80.12 69.88,-60.88 120.38,-60.88 120.38,-80.12"/>
<text text-anchor="middle" x="95.12" y="-66.62" font-family="Helvetica,sans-Serif" font-size="10.00">stddef.h</text>
</a>
</g>
</g>
<!-- Node5&#45;&gt;Node6 -->
<g id="edge6_Node000005_Node000006" class="edge">
<title>Node5&#45;&gt;Node6</title>
<g id="a_edge6_Node000005_Node000006"><a xlink:title=" ">
<path fill="none" stroke="#63b8ff" d="M95.12,-127.03C95.12,-117.98 95.12,-103.7 95.12,-91.88"/>
<polygon fill="#63b8ff" stroke="#63b8ff" points="98.63,-91.91 95.13,-81.91 91.63,-91.91 98.63,-91.91"/>
</a>
</g>
</g>
<!-- Node8&#45;&gt;Node4 -->
<g id="edge9_Node000008_Node000004" class="edge">
<title>Node8&#45;&gt;Node4</title>
<g id="a_edge9_Node000008_Node000004"><a xlink:title=" ">
<path fill="none" stroke="#63b8ff" d="M275.3,-187.91C280.22,-179.08 287.52,-165.1 292.12,-152.25 299.41,-131.94 304.68,-107.75 307.79,-91.17"/>
<polygon fill="#63b8ff" stroke="#63b8ff" points="311.18,-92.12 309.49,-81.66 304.29,-90.89 311.18,-92.12"/>
</a>
</g>
</g>
<!-- Node8&#45;&gt;Node7 -->
<g id="edge10_Node000008_Node000007" class="edge">
<title>Node8&#45;&gt;Node7</title>
<g id="a_edge10_Node000008_Node000007"><a xlink:title=" ">
<path fill="none" stroke="#63b8ff" d="M263.9,-187.93C259.04,-180.96 252.07,-170.95 245.64,-161.71"/>
<polygon fill="#63b8ff" stroke="#63b8ff" points="248.7,-159.98 240.11,-153.77 242.95,-163.98 248.7,-159.98"/>
</a>
</g>
</g>
<!-- Node10&#45;&gt;Node4 -->
<g id="edge13_Node000010_Node000004" class="edge">
<title>Node10&#45;&gt;Node4</title>
<g id="a_edge13_Node000010_Node000004"><a xlink:title=" ">
<path fill="none" stroke="#63b8ff" d="M356.76,-127.03C348.77,-117.31 335.81,-101.54 325.74,-89.28"/>
<polygon fill="#63b8ff" stroke="#63b8ff" points="328.45,-87.07 319.39,-81.56 323.04,-91.51 328.45,-87.07"/>
</a>
</g>
</g>
<!-- Node11&#45;&gt;Node4 -->
<g id="edge15_Node000011_Node000004" class="edge">
<title>Node11&#45;&gt;Node4</title>
<g id="a_edge15_Node000011_Node000004"><a xlink:title=" ">
<path fill="none" stroke="#63b8ff" d="M490.79,-187.76C476.39,-179.05 454.4,-165.35 436.12,-152.25 418.52,-139.63 416,-133.98 398.12,-121.75 378.93,-108.62 356.13,-95.53 338.69,-86.01"/>
<polygon fill="#63b8ff" stroke="#63b8ff" points="340.4,-82.95 329.93,-81.29 337.07,-89.12 340.4,-82.95"/>
</a>
</g>
</g>
<!-- Node12 -->
<g id="Node000012" class="node">
<title>Node12</title>
<g id="a_Node000012"><a xlink:href="geodetic_8h.html" target="_top" xlink:title="Geodetic coordinate utility header.">
<polygon fill="white" stroke="#666666" points="567,-146.62 445.25,-146.62 445.25,-127.38 567,-127.38 567,-146.62"/>
<text text-anchor="middle" x="506.12" y="-133.12" font-family="Helvetica,sans-Serif" font-size="10.00">common/utils/geodetic.h</text>
</a>
</g>
</g>
<!-- Node11&#45;&gt;Node12 -->
<g id="edge16_Node000011_Node000012" class="edge">
<title>Node11&#45;&gt;Node12</title>
<g id="a_edge16_Node000011_Node000012"><a xlink:title=" ">
<path fill="none" stroke="#63b8ff" d="M506.12,-187.93C506.12,-180.15 506.12,-168.58 506.12,-158.53"/>
<polygon fill="#63b8ff" stroke="#63b8ff" points="509.63,-158.54 506.13,-148.54 502.63,-158.54 509.63,-158.54"/>
</a>
</g>
</g>
<!-- Node14 -->
<g id="Node000014" class="node">
<title>Node14</title>
<g id="a_Node000014"><a xlink:href="linear__algebra_8h.html" target="_top" xlink:title="Linear algebra functions utility header.">
<polygon fill="white" stroke="#666666" points="669.5,-85.75 568.75,-85.75 568.75,-55.25 669.5,-55.25 669.5,-85.75"/>
<text text-anchor="start" x="576.75" y="-72.25" font-family="Helvetica,sans-Serif" font-size="10.00">common/utils/linear</text>
<text text-anchor="middle" x="619.12" y="-61" font-family="Helvetica,sans-Serif" font-size="10.00">_algebra.h</text>
</a>
</g>
</g>
<!-- Node11&#45;&gt;Node14 -->
<g id="edge21_Node000011_Node000014" class="edge">
<title>Node11&#45;&gt;Node14</title>
<g id="a_edge21_Node000011_Node000014"><a xlink:title=" ">
<path fill="none" stroke="#63b8ff" d="M525.88,-187.8C541.08,-180.04 561.84,-167.7 576.12,-152.25 591.16,-135.99 602.58,-113.48 609.85,-96.36"/>
<polygon fill="#63b8ff" stroke="#63b8ff" points="612.97,-97.99 613.47,-87.41 606.48,-95.37 612.97,-97.99"/>
</a>
</g>
</g>
<!-- Node13 -->
<g id="Node000013" class="node">
<title>Node13</title>
<g id="a_Node000013"><a xlink:title=" ">
<polygon fill="#e0e0e0" stroke="#999999" points="540.75,-19.25 495.5,-19.25 495.5,0 540.75,0 540.75,-19.25"/>
<text text-anchor="middle" x="518.12" y="-5.75" font-family="Helvetica,sans-Serif" font-size="10.00">math.h</text>
</a>
</g>
</g>
<!-- Node12&#45;&gt;Node13 -->
<g id="edge17_Node000012_Node000013" class="edge">
<title>Node12&#45;&gt;Node13</title>
<g id="a_edge17_Node000012_Node000013"><a xlink:title=" ">
<path fill="none" stroke="#63b8ff" d="M483.98,-126.9C467.46,-118.79 446.1,-105.18 436.12,-85.75 429.94,-73.69 429.2,-66.9 436.12,-55.25 446.57,-37.68 466.62,-26.59 484.28,-19.86"/>
<polygon fill="#63b8ff" stroke="#63b8ff" points="485.39,-23.18 493.71,-16.62 483.11,-16.56 485.39,-23.18"/>
</a>
</g>
</g>
<!-- Node12&#45;&gt;Node14 -->
<g id="edge18_Node000012_Node000014" class="edge">
<title>Node12&#45;&gt;Node14</title>
<g id="a_edge18_Node000012_Node000014"><a xlink:title=" ">
<path fill="none" stroke="#63b8ff" d="M521.84,-127.03C537.78,-117.93 563.01,-103.53 583.78,-91.67"/>
<polygon fill="#63b8ff" stroke="#63b8ff" points="585.3,-94.84 592.25,-86.84 581.83,-88.76 585.3,-94.84"/>
</a>
</g>
</g>
<!-- Node15 -->
<g id="Node000015" class="node">
<title>Node15</title>
<g id="a_Node000015"><a xlink:href="units_8h.html" target="_top" xlink:title="SI and Imperial unit defs and conversion functions.">
<polygon fill="white" stroke="#666666" points="551.12,-80.12 445.12,-80.12 445.12,-60.88 551.12,-60.88 551.12,-80.12"/>
<text text-anchor="middle" x="498.12" y="-66.62" font-family="Helvetica,sans-Serif" font-size="10.00">common/utils/units.h</text>
</a>
</g>
</g>
<!-- Node12&#45;&gt;Node15 -->
<g id="edge20_Node000012_Node000015" class="edge">
<title>Node12&#45;&gt;Node15</title>
<g id="a_edge20_Node000012_Node000015"><a xlink:title=" ">
<path fill="none" stroke="#63b8ff" d="M505.01,-127.03C503.88,-117.89 502.08,-103.39 500.61,-91.5"/>
<polygon fill="#63b8ff" stroke="#63b8ff" points="504.12,-91.39 499.41,-81.89 497.17,-92.25 504.12,-91.39"/>
</a>
</g>
</g>
<!-- Node14&#45;&gt;Node13 -->
<g id="edge19_Node000014_Node000013" class="edge">
<title>Node14&#45;&gt;Node13</title>
<g id="a_edge19_Node000014_Node000013"><a xlink:title=" ">
<path fill="none" stroke="#63b8ff" d="M593.9,-54.8C578.52,-45.83 558.92,-34.41 543.51,-25.42"/>
<polygon fill="#63b8ff" stroke="#63b8ff" points="545.32,-22.43 534.92,-20.42 541.8,-28.48 545.32,-22.43"/>
</a>
</g>
</g>
</g>
</svg>

<g id="navigator" transform="translate(0 0)" fill="#404254">
  <rect fill="#f2f5e9" fill-opacity="0.5" stroke="#606060" stroke-width=".5" x="0" y="0" width="60" height="60"/>
  <use id="zoomplus" xlink:href="#zoomPlus" x="17" y="9" onmousedown="handleZoom(evt,'in')"/>
  <use id="zoomminus" xlink:href="#zoomMin" x="42" y="9" onmousedown="handleZoom(evt,'out')"/>
  <use id="reset" xlink:href="#resetDef" x="30" y="36" onmousedown="handleReset()"/>
   <use id="arrowup" xlink:href="#arrowUp" x="0" y="0" onmousedown="handlePan(0,-1)"/>
  <use id="arrowright" xlink:href="#arrowRight" x="0" y="0" onmousedown="handlePan(1,0)"/>
  <use id="arrowdown" xlink:href="#arrowDown" x="0" y="0" onmousedown="handlePan(0,1)"/>
  <use id="arrowleft" xlink:href="#arrowLeft" x="0" y="0" onmousedown="handlePan(-1,0)"/>
</g>
<svg viewBox="0 0 15 15" width="100%" height="30px" preserveAspectRatio="xMaxYMin meet">
 <g id="arrow_out" transform="scale(0.3 0.3)">
  <a xlink:href="race_8c__incl_org.svg" target="_base">
   <rect id="button" ry="5" rx="5" y="6" x="6" height="38" width="38"
        fill="#f2f5e9" fill-opacity="0.5" stroke="#606060" stroke-width="1.0"/>
   <path id="arrow"
     d="M 11.500037,31.436501 C 11.940474,20.09759 22.043105,11.32322 32.158766,21.979434 L 37.068811,17.246167 C 37.068811,17.246167 37.088388,32 37.088388,32 L 22.160133,31.978069 C 22.160133,31.978069 26.997745,27.140456 26.997745,27.140456 C 18.528582,18.264221 13.291696,25.230495 11.500037,31.436501 z"
     style="fill:#404040;"/>
  </a>
 </g>
</svg>

<style type='text/css'>
<![CDATA[
[data-mouse-over-selected='false'] { opacity: 0.7; }
[data-mouse-over-selected='true']  { opacity: 1.0; }
]]>
</style>
<script type="application/ecmascript"><![CDATA[
document.addEventListener('DOMContentLoaded', (event) => {
  highlightEdges();
  highlightAdjacentNodes();
});
]]></script>
</svg>
