<?xml version="1.0" encoding="UTF-8" standalone="no"?>
<!DOCTYPE svg PUBLIC "-//W3C//DTD SVG 1.1//EN"
 "http://www.w3.org/Graphics/SVG/1.1/DTD/svg11.dtd">
<!-- Generated by graphviz version 12.2.0 (20241103.1931)
 -->
<!-- Title: firmware/common/utils/units.h Pages: 1 -->
<!--zoomable 249 -->

<svg id="main" version="1.1" xmlns="http://www.w3.org/2000/svg" xmlns:xlink="http://www.w3.org/1999/xlink" xml:space="preserve" onload="init(evt)">

<style type="text/css"><![CDATA[
.node, .edge {opacity: 0.7;}
.node.selected, .edge.selected {opacity: 1;}
.edge:hover path { stroke: red; }
.edge:hover polygon { stroke: red; fill: red; }
]]></style>

<defs>
  <circle id="rim" cx="0" cy="0" r="7"/>
  <circle id="rim2" cx="0" cy="0" r="3.5"/>
  <g id="zoomPlus">
    <use xlink:href="#rim" fill="#404040"><set attributeName="fill" to="#808080" begin="zoomplus.mouseover" end="zoomplus.mouseout"/></use>
    <path d="M-4,0h8M0,-4v8" fill="none" stroke="white" stroke-width="1.5" pointer-events="none"/>
  </g>
  <g id="zoomMin">
    <use xlink:href="#rim" fill="#404040"><set attributeName="fill" to="#808080" begin="zoomminus.mouseover" end="zoomminus.mouseout"/></use>
    <path d="M-4,0h8" fill="none" stroke="white" stroke-width="1.5" pointer-events="none"/>
  </g>
  <g id="arrowUp" transform="translate(30 24)">
    <use xlink:href="#rim"/>
    <path pointer-events="none" fill="none" stroke="white" stroke-width="1.5" d="M0,-3.0v7 M-2.5,-0.5L0,-3.0L2.5,-0.5"/>
  </g>
  <g id="arrowRight" transform="rotate(90) translate(36 -43)">
    <use xlink:href="#rim"/>
    <path pointer-events="none" fill="none" stroke="white" stroke-width="1.5" d="M0,-3.0v7 M-2.5,-0.5L0,-3.0L2.5,-0.5"/>
  </g>
  <g id="arrowDown" transform="rotate(180) translate(-30 -48)">
    <use xlink:href="#rim"/>
    <path pointer-events="none" fill="none" stroke="white" stroke-width="1.5" d="M0,-3.0v7 M-2.5,-0.5L0,-3.0L2.5,-0.5"/>
  </g>
  <g id="arrowLeft" transform="rotate(270) translate(-36 17)">
    <use xlink:href="#rim"/>
    <path pointer-events="none" fill="none" stroke="white" stroke-width="1.5" d="M0,-3.0v7 M-2.5,-0.5L0,-3.0L2.5,-0.5"/>
  </g>
  <g id="resetDef">
    <use xlink:href="#rim2" fill="#404040"><set attributeName="fill" to="#808080" begin="reset.mouseover" end="reset.mouseout"/></use>
  </g>
</defs>
<script type="application/ecmascript">
var viewWidth = 606;
var viewHeight = 249;
var sectionId = 'dynsection-0';
</script>
<script type="application/ecmascript" xlink:href="svg.min.js"/>
<svg id="graph" class="graph">
<g id="viewport">
<title>firmware/common/utils/units.h</title>
<!-- Node1 -->
<g id="Node000001" class="node">
<title>Node1</title>
<g id="a_Node000001"><a xlink:title="SI and Imperial unit defs and conversion functions.">
<polygon fill="#999999" stroke="#666666" points="264.62,-241.25 150.38,-241.25 150.38,-210.75 264.62,-210.75 264.62,-241.25"/>
<text text-anchor="start" x="158.38" y="-227.75" font-family="Helvetica,sans-Serif" font-size="10.00">firmware/common/utils</text>
<text text-anchor="middle" x="207.5" y="-216.5" font-family="Helvetica,sans-Serif" font-size="10.00">/units.h</text>
</a>
</g>
</g>
<!-- Node2 -->
<g id="Node000002" class="node">
<title>Node2</title>
<g id="a_Node000002"><a xlink:href="geodetic_8h.html" target="_top" xlink:title="Geodetic coordinate utility header.">
<polygon fill="white" stroke="#666666" points="198.62,-174.75 84.38,-174.75 84.38,-144.25 198.62,-144.25 198.62,-174.75"/>
<text text-anchor="start" x="92.38" y="-161.25" font-family="Helvetica,sans-Serif" font-size="10.00">firmware/common/utils</text>
<text text-anchor="middle" x="141.5" y="-150" font-family="Helvetica,sans-Serif" font-size="10.00">/geodetic.h</text>
</a>
</g>
</g>
<!-- Node1&#45;&gt;Node2 -->
<g id="edge1_Node000001_Node000002" class="edge">
<title>Node1&#45;&gt;Node2</title>
<g id="a_edge1_Node000001_Node000002"><a xlink:title=" ">
<path fill="none" stroke="#63b8ff" d="M184.41,-202.44C175.12,-193.36 164.68,-183.15 156.42,-175.08"/>
<polygon fill="#63b8ff" stroke="#63b8ff" points="181.84,-204.82 191.44,-209.31 186.74,-199.81 181.84,-204.82"/>
</a>
</g>
</g>
<!-- Node8 -->
<g id="Node000008" class="node">
<title>Node8</title>
<g id="a_Node000008"><a xlink:href="imu_8c.html" target="_top" xlink:title="IMU calibration and coordinate transformations.">
<polygon fill="white" stroke="#666666" points="332,-174.75 217,-174.75 217,-144.25 332,-144.25 332,-174.75"/>
<text text-anchor="start" x="225" y="-161.25" font-family="Helvetica,sans-Serif" font-size="10.00">firmware/source/torque</text>
<text text-anchor="middle" x="274.5" y="-150" font-family="Helvetica,sans-Serif" font-size="10.00">_vector/sensors/imu.c</text>
</a>
</g>
</g>
<!-- Node1&#45;&gt;Node8 -->
<g id="edge8_Node000001_Node000008" class="edge">
<title>Node1&#45;&gt;Node8</title>
<g id="a_edge8_Node000001_Node000008"><a xlink:title=" ">
<path fill="none" stroke="#63b8ff" d="M230.94,-202.44C240.37,-193.36 250.97,-183.15 259.36,-175.08"/>
<polygon fill="#63b8ff" stroke="#63b8ff" points="228.57,-199.86 223.79,-209.31 233.43,-204.9 228.57,-199.86"/>
</a>
</g>
</g>
<!-- Node3 -->
<g id="Node000003" class="node">
<title>Node3</title>
<g id="a_Node000003"><a xlink:href="lap__timer_8c.html" target="_top" xlink:title="DASHBOARD lap timer task implementations.">
<polygon fill="white" stroke="#666666" points="133,-36.12 0,-36.12 0,-5.62 133,-5.62 133,-36.12"/>
<text text-anchor="start" x="8" y="-22.62" font-family="Helvetica,sans-Serif" font-size="10.00">firmware/source/dashboard</text>
<text text-anchor="middle" x="66.5" y="-11.38" font-family="Helvetica,sans-Serif" font-size="10.00">/lap_timer/lap_timer.c</text>
</a>
</g>
</g>
<!-- Node2&#45;&gt;Node3 -->
<g id="edge2_Node000002_Node000003" class="edge">
<title>Node2&#45;&gt;Node3</title>
<g id="a_edge2_Node000002_Node000003"><a xlink:title=" ">
<path fill="none" stroke="#63b8ff" d="M128.01,-133.92C112.4,-105.5 87.23,-59.64 74.47,-36.39"/>
<polygon fill="#63b8ff" stroke="#63b8ff" points="124.87,-135.47 132.75,-142.55 131,-132.1 124.87,-135.47"/>
</a>
</g>
</g>
<!-- Node4 -->
<g id="Node000004" class="node">
<title>Node4</title>
<g id="a_Node000004"><a xlink:href="lap__timer_8h.html" target="_top" xlink:title="DASHBOARD lap timer task implementations.">
<polygon fill="white" stroke="#666666" points="284,-108.25 151,-108.25 151,-77.75 284,-77.75 284,-108.25"/>
<text text-anchor="start" x="159" y="-94.75" font-family="Helvetica,sans-Serif" font-size="10.00">firmware/source/dashboard</text>
<text text-anchor="middle" x="217.5" y="-83.5" font-family="Helvetica,sans-Serif" font-size="10.00">/lap_timer/lap_timer.h</text>
</a>
</g>
</g>
<!-- Node2&#45;&gt;Node4 -->
<g id="edge3_Node000002_Node000004" class="edge">
<title>Node2&#45;&gt;Node4</title>
<g id="a_edge3_Node000002_Node000004"><a xlink:title=" ">
<path fill="none" stroke="#63b8ff" d="M167.43,-136.49C178.29,-127.28 190.62,-116.81 200.32,-108.58"/>
<polygon fill="#63b8ff" stroke="#63b8ff" points="165.26,-133.75 159.9,-142.88 169.79,-139.08 165.26,-133.75"/>
</a>
</g>
</g>
<!-- Node4&#45;&gt;Node3 -->
<g id="edge6_Node000004_Node000003" class="edge">
<title>Node4&#45;&gt;Node3</title>
<g id="a_edge6_Node000004_Node000003"><a xlink:title=" ">
<path fill="none" stroke="#63b8ff" d="M175.4,-72.45C150.91,-61.08 120.55,-46.98 98.11,-36.56"/>
<polygon fill="#63b8ff" stroke="#63b8ff" points="173.93,-75.62 184.47,-76.66 176.88,-69.28 173.93,-75.62"/>
</a>
</g>
</g>
<!-- Node5 -->
<g id="Node000005" class="node">
<title>Node5</title>
<g id="a_Node000005"><a xlink:href="driver__interface_8c.html" target="_top" xlink:title="thread to manage driver&#45;facing LCD, buttons, LEDs">
<polygon fill="white" stroke="#666666" points="284,-41.75 151,-41.75 151,0 284,0 284,-41.75"/>
<text text-anchor="start" x="159" y="-28.25" font-family="Helvetica,sans-Serif" font-size="10.00">firmware/source/dashboard</text>
<text text-anchor="start" x="159" y="-17" font-family="Helvetica,sans-Serif" font-size="10.00">/driver_interface/driver</text>
<text text-anchor="middle" x="217.5" y="-5.75" font-family="Helvetica,sans-Serif" font-size="10.00">_interface.c</text>
</a>
</g>
</g>
<!-- Node4&#45;&gt;Node5 -->
<g id="edge4_Node000004_Node000005" class="edge">
<title>Node4&#45;&gt;Node5</title>
<g id="a_edge4_Node000004_Node000005"><a xlink:title=" ">
<path fill="none" stroke="#63b8ff" d="M217.5,-66.22C217.5,-58.31 217.5,-49.73 217.5,-42.24"/>
<polygon fill="#63b8ff" stroke="#63b8ff" points="214,-65.96 217.5,-75.96 221,-65.96 214,-65.96"/>
</a>
</g>
</g>
<!-- Node6 -->
<g id="Node000006" class="node">
<title>Node6</title>
<g id="a_Node000006"><a xlink:href="race_8c.html" target="_top" xlink:title="Race page implementation.">
<polygon fill="white" stroke="#666666" points="446.62,-36.12 302.38,-36.12 302.38,-5.62 446.62,-5.62 446.62,-36.12"/>
<text text-anchor="start" x="310.38" y="-22.62" font-family="Helvetica,sans-Serif" font-size="10.00">firmware/source/dashboard</text>
<text text-anchor="middle" x="374.5" y="-11.38" font-family="Helvetica,sans-Serif" font-size="10.00">/driver_interface/pages/race.c</text>
</a>
</g>
</g>
<!-- Node4&#45;&gt;Node6 -->
<g id="edge5_Node000004_Node000006" class="edge">
<title>Node4&#45;&gt;Node6</title>
<g id="a_edge5_Node000004_Node000006"><a xlink:title=" ">
<path fill="none" stroke="#63b8ff" d="M260.59,-72.76C286.16,-61.33 318.09,-47.07 341.63,-36.56"/>
<polygon fill="#63b8ff" stroke="#63b8ff" points="259.5,-69.41 251.79,-76.68 262.35,-75.8 259.5,-69.41"/>
</a>
</g>
</g>
<!-- Node7 -->
<g id="Node000007" class="node">
<title>Node7</title>
<g id="a_Node000007"><a xlink:href="dashboard_2main_8c.html" target="_top" xlink:title="&quot;Dashboard&quot; node source code">
<polygon fill="white" stroke="#666666" points="598,-36.12 465,-36.12 465,-5.62 598,-5.62 598,-36.12"/>
<text text-anchor="start" x="473" y="-22.62" font-family="Helvetica,sans-Serif" font-size="10.00">firmware/source/dashboard</text>
<text text-anchor="middle" x="531.5" y="-11.38" font-family="Helvetica,sans-Serif" font-size="10.00">/main.c</text>
</a>
</g>
</g>
<!-- Node4&#45;&gt;Node7 -->
<g id="edge7_Node000004_Node000007" class="edge">
<title>Node4&#45;&gt;Node7</title>
<g id="a_edge7_Node000004_Node000007"><a xlink:title=" ">
<path fill="none" stroke="#63b8ff" d="M295.6,-76.49C342.15,-67 402.34,-54.3 455.5,-41.75 462.27,-40.15 469.36,-38.4 476.37,-36.62"/>
<polygon fill="#63b8ff" stroke="#63b8ff" points="294.96,-73.05 285.86,-78.47 296.35,-79.91 294.96,-73.05"/>
</a>
</g>
</g>
</g>
</svg>

<g id="navigator" transform="translate(0 0)" fill="#404254">
  <rect fill="#f2f5e9" fill-opacity="0.5" stroke="#606060" stroke-width=".5" x="0" y="0" width="60" height="60"/>
  <use id="zoomplus" xlink:href="#zoomPlus" x="17" y="9" onmousedown="handleZoom(evt,'in')"/>
  <use id="zoomminus" xlink:href="#zoomMin" x="42" y="9" onmousedown="handleZoom(evt,'out')"/>
  <use id="reset" xlink:href="#resetDef" x="30" y="36" onmousedown="handleReset()"/>
   <use id="arrowup" xlink:href="#arrowUp" x="0" y="0" onmousedown="handlePan(0,-1)"/>
  <use id="arrowright" xlink:href="#arrowRight" x="0" y="0" onmousedown="handlePan(1,0)"/>
  <use id="arrowdown" xlink:href="#arrowDown" x="0" y="0" onmousedown="handlePan(0,1)"/>
  <use id="arrowleft" xlink:href="#arrowLeft" x="0" y="0" onmousedown="handlePan(-1,0)"/>
</g>
<svg viewBox="0 0 15 15" width="100%" height="30px" preserveAspectRatio="xMaxYMin meet">
 <g id="arrow_out" transform="scale(0.3 0.3)">
  <a xlink:href="units_8h__dep__incl_org.svg" target="_base">
   <rect id="button" ry="5" rx="5" y="6" x="6" height="38" width="38"
        fill="#f2f5e9" fill-opacity="0.5" stroke="#606060" stroke-width="1.0"/>
   <path id="arrow"
     d="M 11.500037,31.436501 C 11.940474,20.09759 22.043105,11.32322 32.158766,21.979434 L 37.068811,17.246167 C 37.068811,17.246167 37.088388,32 37.088388,32 L 22.160133,31.978069 C 22.160133,31.978069 26.997745,27.140456 26.997745,27.140456 C 18.528582,18.264221 13.291696,25.230495 11.500037,31.436501 z"
     style="fill:#404040;"/>
  </a>
 </g>
</svg>

<style type='text/css'>
<![CDATA[
[data-mouse-over-selected='false'] { opacity: 0.7; }
[data-mouse-over-selected='true']  { opacity: 1.0; }
]]>
</style>
<script type="application/ecmascript"><![CDATA[
document.addEventListener('DOMContentLoaded', (event) => {
  highlightEdges();
  highlightAdjacentNodes();
});
]]></script>
</svg>
